<?xml version="1.0" encoding="UTF-8"?>
<svg id="Layer_2" data-name="Layer 2" xmlns="http://www.w3.org/2000/svg" viewBox="0 0 97.95 90">
  <defs>
    <style>
      .cls-1 {
        fill: #55b56c;
      }

      .cls-2 {
        fill: #202d59;
      }
    </style>
  </defs>
  <g id="Layer_1-2" data-name="Layer 1">
    <g>
      <path class="cls-2" d="M78.21,32.97c0,11.83-4.47,19.92-9.36,25.33-5.57,6.17-11.8,13.12-26.15,14.16h-23.47v-19.74h22.83c6.29,0,11.46.91,15.59,6.77,2.09-1.75,3.92-3.76,5.84-5.88,1.77-1.96,3.19-4.11,4.33-6.39-2.99-2.06-6.39-3.64-8.32-4.38,6.41-3.59,11.8-9.23,11.8-19.37,0-6.41-2.05-11.41-6.16-15.52C60.01,2.82,51.94,0,41.67,0H0v17.31h38.72c8.34,0,12.95,3.33,12.95,9.23,0,6.93-5.51,9.75-14.23,9.75h-18.21s-19.24,0-19.24,0v53.47h42.7c23.25,0,35.05-14.87,40.59-21.09,7.08-7.96,14.66-20.44,14.66-38.68v-2.97h-19.75v5.93Z"/>
      <path class="cls-1" d="M87.72,74.65c-2.24,2.55-5.36,6.07-9.51,9.56v5.78h19.75v-29.84c-2.48,4.76-5.58,9.27-9.35,13.49l-.89,1.01Z"/>
      <path class="cls-1" d="M79.19,6.5h0c-3.54,5.75-2.69,12.69,1.89,15.51h0c4.58,2.82,11.16.44,14.69-5.31h0c3.54-5.75,2.69-12.69-1.89-15.51h0c-4.58-2.82-11.16-.44-14.69,5.31Z"/>
    </g>
  </g>
</svg>