<svg xmlns="http://www.w3.org/2000/svg" version="1.1" xmlns:xlink="http://www.w3.org/1999/xlink" width="512" height="512" x="0" y="0" viewBox="0 0 64 64" style="enable-background:new 0 0 512 512" xml:space="preserve" class=""><g><path d="M53 62h-4a1 1 0 1 0 0 2h4a1 1 0 1 0 0-2zM62.293 54.879l-1.172-1.172A3.853 3.853 0 0 1 60 51v-6c0-3.91-2.51-7.236-6-8.475V35c0-1.654-1.346-3-3-3s-3 1.346-3 3v1.525c-3.49 1.239-6 4.565-6 8.475v6a3.853 3.853 0 0 1-1.121 2.707l-1.172 1.172A5.868 5.868 0 0 0 38 59a1 1 0 0 0 1 1h4a1 1 0 1 0 0-2h-2.865a3.86 3.86 0 0 1 .986-1.707l1.172-1.172A5.868 5.868 0 0 0 44 51v-6c0-3.859 3.141-7 7-7s7 3.141 7 7v6c0 1.534.622 3.036 1.707 4.121l1.172 1.172c.473.473.812 1.066.986 1.707H47a1 1 0 1 0 0 2h16a1 1 0 0 0 1-1 5.868 5.868 0 0 0-1.707-4.121zM50 36.059V35a1 1 0 0 1 2 0v1.059c-.329-.037-.662-.059-1-.059s-.671.022-1 .059z" fill="#000000" opacity="1" data-original="#000000"></path><path d="M35 56H5c-1.654 0-3-1.346-3-3V20h43a1 1 0 1 0 0-2H2v-7c0-1.654 1.346-3 3-3h4v2c0 2.206 1.794 4 4 4h2a1 1 0 1 0 0-2h-2c-1.103 0-2-.897-2-2V4c0-1.103.897-2 2-2s2 .897 2 2v2h-1a1 1 0 1 0 0 2h21v2c0 2.206 1.794 4 4 4h2a1 1 0 1 0 0-2h-2c-1.103 0-2-.897-2-2V4c0-1.103.897-2 2-2s2 .897 2 2v2h-1a1 1 0 1 0 0 2h7c1.654 0 3 1.346 3 3v18a1 1 0 1 0 2 0V11c0-2.757-2.243-5-5-5h-4V4c0-2.206-1.794-4-4-4s-4 1.794-4 4v2H17V4c0-2.206-1.794-4-4-4S9 1.794 9 4v2H5c-2.757 0-5 2.243-5 5v42c0 2.757 2.243 5 5 5h30a1 1 0 1 0 0-2z" fill="#000000" opacity="1" data-original="#000000"></path><path d="M36 29H16a1 1 0 1 0 0 2h20a1 1 0 1 0 0-2zM36 37H16a1 1 0 1 0 0 2h20a1 1 0 1 0 0-2zM10 27c-1.654 0-3 1.346-3 3s1.346 3 3 3 3-1.346 3-3-1.346-3-3-3zm0 4a1 1 0 1 1 0-2 1 1 0 0 1 0 2zM10 35c-1.654 0-3 1.346-3 3s1.346 3 3 3 3-1.346 3-3-1.346-3-3-3zm0 4a1 1 0 1 1 0-2 1 1 0 0 1 0 2zM36 45H16a1 1 0 1 0 0 2h20a1 1 0 1 0 0-2zM10 43c-1.654 0-3 1.346-3 3s1.346 3 3 3 3-1.346 3-3-1.346-3-3-3zm0 4a1 1 0 1 1 0-2 1 1 0 0 1 0 2z" fill="#000000" opacity="1" data-original="#000000"></path></g></svg>