<svg xmlns="http://www.w3.org/2000/svg" version="1.1" xmlns:xlink="http://www.w3.org/1999/xlink" width="512" height="512" x="0" y="0" viewBox="0 0 24 24" style="enable-background:new 0 0 512 512" xml:space="preserve" class=""><g><path d="M7.5 13A4.5 4.5 0 1 1 12 8.5 4.505 4.505 0 0 1 7.5 13zm0-6A1.5 1.5 0 1 0 9 8.5 1.5 1.5 0 0 0 7.5 7zM15 20.5A5.506 5.506 0 0 0 9.5 15h-4A5.506 5.506 0 0 0 0 20.5V24h3v-3.5A2.5 2.5 0 0 1 5.5 18h4a2.5 2.5 0 0 1 2.5 2.5V24h3zM17.5 9A4.5 4.5 0 1 1 22 4.5 4.505 4.505 0 0 1 17.5 9zm0-6A1.5 1.5 0 1 0 19 4.5 1.5 1.5 0 0 0 17.5 3zM24 16.5a5.506 5.506 0 0 0-5.5-5.5H15v3h3.5a2.5 2.5 0 0 1 2.5 2.5V20h3z" fill="#262626" opacity="1" data-original="#000000"></path></g></svg>