<svg id="Layer_1" enable-background="new 0 0 100 100" viewBox="0 0 100 100" xmlns="http://www.w3.org/2000/svg"><path d="m69.8127975 15.2723255h-59.3961315c-4.3700156 0-7.916667 3.5359554-7.916667 7.916666v45.8849678c0 4.380455 3.5466511 7.9166718 7.916667 7.9166718h37.0394745c.2216263-.7916718.5699768-1.5624619 1.0344238-2.2801666l2.1322441-3.2615051h-40.2061424c-1.3088789 0-2.375-1.0661163-2.375-2.375v-36.3849679c0-1.3091354 1.0661211-2.375 2.375-2.375h59.3961334c1.298317 0 2.375 1.0658646 2.375 2.375v2.0899811c.8760681-.2850227 1.8049622-.4329453 2.7655487-.4329453.9605331 0 1.8894272.1479225 2.776123.4223785v-11.5794143c-.0000018-4.3807106-3.5467242-7.916666-7.9166736-7.916666z"/><path d="m23.1134491 7.2307205h-3.2664776c-1.4213524 0-2.5735874 1.1522341-2.5735874 2.5735874v8.2156849h8.4136524v-8.2156849c0-1.4213533-1.152235-2.5735874-2.5735874-2.5735874z"/><path d="m60.3809814 7.2307205h-3.2664757c-1.4213562 0-2.5735893 1.1522341-2.5735893 2.5735874v8.2156849h8.4136543v-8.2156849c.0000001-1.4213533-1.1522369-2.5735874-2.5735893-2.5735874z"/><path d="m94.5023117 82.2226791h-39.0918312c-2.3746147 0-3.8065643-2.6371765-2.5058556-4.6299286l2.7407684-4.1727295c1.5049286-2.2911987 2.306778-4.9725723 2.306778-7.7138138v-3.9124641c0-8.0546303 5.6084251-14.8086319 13.1260681-16.5507736v-1.7422142c0-2.1478882 1.742218-3.8781548 3.8781586-3.8781548 1.0739822 0 2.040535.4295616 2.7445297 1.1336288.6921158.7039948 1.1336288 1.6705475 1.1336288 2.7445259v1.7422142c3.1502686.7159386 5.9425049 2.3149643 8.150116 4.5225029 3.0786057 3.0786781 4.9759521 7.3267517 4.9759521 12.0282707v3.9124641c0 2.7412415.8018494 5.4226151 2.306778 7.7138138l2.7407684 4.1727295c1.300705 1.9927522-.1312408 4.6299287-2.5058593 4.6299287z"/><path d="m74.9564056 92.7692795h-.0000153c-3.74823 0-6.7867661-3.0385361-6.7867661-6.7867661v-.273468h13.5735474v.273468c.0000001 3.74823-3.038536 6.7867661-6.786766 6.7867661z"/></svg>