<svg fill="#262626" height="24" viewBox="0 0 24 24" width="24" xmlns="http://www.w3.org/2000/svg" ><path clip-rule="evenodd" d="m17.1803 15.266 1.9451-1.0806c1.7145-.9525 1.7145-3.4183 0-4.37078l-1.9452-1.08065-.9731.97314-.0152.01488-2.3771 2.27801 2.3771 2.278.0152.0149zm-4.8107-1.8809 2.4308 2.3295.5616.5616-9.64789 5.3599c-.68943.383-1.44415.4013-2.09212.1561l.57758-.5776zm0-2.7702 2.4308-2.32952.5616-.56157-9.64789-5.35992c-.68942-.38301-1.44414-.4013-2.09211-.1561l.57757.57757zm-10.1855-7.01658.60879.60879.0152.01488 8.11621 7.77801-8.11621 7.778-.0152.0149-.60879.6088c-.11804-.2889-.1841-.6086-.1841-.951v-14.90142c0-.34237.06606-.66212.1841-.95096z" fill="#262626" fill-rule="evenodd"/></svg>