<svg xmlns="http://www.w3.org/2000/svg" version="1.1" xmlns:xlink="http://www.w3.org/1999/xlink" width="512" height="512" x="0" y="0" viewBox="0 0 24 24" style="enable-background:new 0 0 512 512" xml:space="preserve"><g><path d="M17.5 14a1.5 1.5 0 1 1-.001 3.001A1.5 1.5 0 0 1 17.5 14ZM16 10h3V4.021h2.484L18.327.371a1.115 1.115 0 0 0-1.66 0l-3.183 3.65H16V10Zm5-3v14H4c-.552 0-1-.449-1-1V9.858c.322.084.653.142 1 .142h10V7H4a1.001 1.001 0 0 1 0-2h5.977l2.616-3H4C1.794 2 0 3.794 0 6v14c0 2.206 1.794 4 4 4h20V7h-3Z" fill="#262626" opacity="1" data-original="#000000"></path></g></svg>