<svg id="Layer_1" enable-background="new 0 0 512 512" height="512" viewBox="0 0 512 512" width="512" xmlns="http://www.w3.org/2000/svg"><g><path d="m474.425 195.08h-12.378v-29.249c0-29.705-24.19-53.872-53.924-53.872h-100.97l-16.909 70.699h121.848l-149.165 217.327h145.195c29.734 0 53.924-24.167 53.924-53.872v-29.22h12.378c16.308 0 29.575-13.257 29.575-29.553v-62.737c.001-16.279-13.266-29.523-29.574-29.523z"/><path d="m103.538 305.314h106.708l-22.66 94.671-24.755 103.426 70.987-103.426 132.692-193.326h-106.682l22.648-94.699 24.722-103.371z"/><path d="m179.823 329.314h-121.867l149.183-217.354h-145.214c-29.735 0-53.925 24.166-53.925 53.871v180.283c0 29.705 24.19 53.872 53.925 53.872h100.983z"/></g></svg>