<?xml version="1.0" encoding="UTF-8"?>
<svg id="Layer_1" data-name="Layer 1" xmlns="http://www.w3.org/2000/svg" viewBox="0 0 1080 1080">
  <defs>
    <style>
      .cls-1 {
        fill: #fff;
      }

      .cls-2 {
        fill: #163b7c;
      }

      .cls-3 {
        fill: #54b46b;
      }
    </style>
  </defs>
  <rect class="cls-1" x="72.14" y="80.32" width="935.72" height="919.35" rx="158.3" ry="158.3"/>
  <g>
    <path class="cls-2" d="M748.29,454.25c0,84.27-31.85,141.92-66.68,180.49-39.71,43.96-84.08,93.52-186.33,100.88h-167.22v-140.71h162.66c44.79,0,81.66,6.47,111.1,48.27,14.9-12.46,27.94-26.8,41.59-41.92,12.64-13.98,22.73-29.29,30.88-45.55-21.32-14.67-45.53-25.92-59.29-31.18,45.68-25.58,84.08-65.8,84.08-138,0-45.68-14.62-81.32-43.87-110.57-36.56-36.55-94.12-56.65-167.25-56.65H190.99v123.37h275.96c59.42,0,92.31,23.76,92.31,65.79,0,49.35-39.29,69.47-101.44,69.47h-129.76s-137.07,0-137.07,0v381.05h304.29c165.71,0,249.76-105.95,289.23-150.27,50.47-56.7,104.5-145.64,104.5-275.62v-21.13h-140.72v42.29Z"/>
    <path class="cls-3" d="M816.09,751.32c-15.99,18.18-38.2,43.24-67.79,68.14v41.22h140.72v-212.66c-17.65,33.91-39.78,66.03-66.6,96.14l-6.32,7.16Z"/>
    <path class="cls-3" d="M755.29,265.62h0c-25.2,40.98-19.18,90.46,13.44,110.53h0c32.63,20.07,79.51,3.11,104.71-37.87h0c25.2-40.98,19.18-90.46-13.44-110.53h0c-32.63-20.07-79.51-3.11-104.71,37.87Z"/>
  </g>
</svg>