<svg width="512" height="512" viewBox="0 0 16 16"  xmlns="http://www.w3.org/2000/svg"   fill="#262626">
<path d="M11.8418 0H3.96834C2.88125 0 2 0.88125 2 1.96834V15.9882L4.62447 14.1636L6.26475 15.3053L7.90503 14.1643L9.54531 15.3053L11.1856 14.1649L13.8101 15.9922V1.96834C13.8101 0.88125 12.9288 0 11.8418 0ZM11.8418 12.2208L11.1856 11.7661L9.54534 12.9078L7.90506 11.7668L6.26478 12.9078L4.6245 11.7674L3.96837 12.2267V1.96834H11.8418V12.2208H11.8418Z" />
<path d="M10.6667 4H5.33337V6H10.6667V4Z" />
<path d="M9.33337 7.33334H5.33337V9.33334H9.33337V7.33334Z" />
</svg>
