<svg id="Слой_1" height="512" viewBox="0 0 128 128" width="512" xmlns="http://www.w3.org/2000/svg" data-name="Слой 1"><path d="m28 100a9.14 9.14 0 0 0 9-9.22c0-5.94-6.73-14.15-7.5-15.07a2.07 2.07 0 0 0 -3.07 0c-.77.92-7.5 9.13-7.5 15.07a9.14 9.14 0 0 0 9.07 9.22zm0-19.74c2.14 2.92 5 7.54 5 10.52a5 5 0 1 1 -10.06 0c.06-2.98 2.92-7.6 5.06-10.52z"/><path d="m30.64 42.21a2 2 0 0 0 -2.68.89l-6 12a2 2 0 0 0 1.79 2.9h5.39l-5.59 8.94a2 2 0 1 0 3.39 2.12l7.5-12a2 2 0 0 0 -1.69-3.06h-5.75l4.55-9.11a2 2 0 0 0 -.91-2.68z"/><path d="m58 112h-46v-76h22a2 2 0 0 0 2-2v-22h44v12.93a2 2 0 0 0 4 0v-14.93a2 2 0 0 0 -2-2h-48a2 2 0 0 0 -1.41.59l-24 24a2 2 0 0 0 -.59 1.41v80a2 2 0 0 0 2 2h48a2 2 0 0 0 0-4zm-26-97.17v17.17h-17.17z"/><path d="m90 56a34 34 0 1 0 34 34 34 34 0 0 0 -34-34zm0 64a30 30 0 1 1 30-30 30 30 0 0 1 -30 30z"/><path d="m91.25 87.82c-5.06-2-8.13-3.39-8.13-6.48 0-4.16 3.83-6.05 7.38-6.05 2.63 0 7.08 1.2 7.08 5.68a2 2 0 0 0 4 0c0-5.79-4.62-9.05-9.6-9.59v-3.06a2 2 0 0 0 -4 0v3.21c-4.72.87-8.86 4.2-8.86 9.81 0 6 5.67 8.25 10.68 10.2 5.19 2 8.34 3.49 8.34 6.77a5.62 5.62 0 0 1 -2.26 4.69 9.29 9.29 0 0 1 -5.58 1.67c-4.21 0-8.48-2.29-8.48-6.67a2 2 0 0 0 -4 0c0 6.13 4.81 9.71 10.16 10.5v3.14a2 2 0 1 0 4 0v-3.07a12.78 12.78 0 0 0 6.31-2.38 9.55 9.55 0 0 0 3.85-7.92c0-6.21-5.78-8.46-10.89-10.45z"/><path d="m71 56a2 2 0 0 0 -2-2h-25a2 2 0 0 0 0 4h25a2 2 0 0 0 2-2z"/><path d="m44 86a2 2 0 0 0 0 4h6a2 2 0 0 0 0-4z"/><path d="m102.73 46.1a2 2 0 0 0 0-2.83 18 18 0 0 0 -25.46 0 2 2 0 0 0 2.83 2.83 14 14 0 0 1 19.8 0 2 2 0 0 0 2.83 0z"/><path d="m82.93 48.93a2 2 0 0 0 2.83 2.83 6 6 0 0 1 8.49 0 2 2 0 0 0 2.83-2.83 10 10 0 0 0 -14.15 0z"/><path d="m71.62 40.44a2 2 0 0 0 2.83 0 22 22 0 0 1 31.11 0 2 2 0 0 0 2.83-2.83 26 26 0 0 0 -36.77 0 2 2 0 0 0 0 2.83z"/></svg>