<?xml version="1.0" encoding="UTF-8"?>
<svg version="1.1" xmlns="http://www.w3.org/2000/svg" width="50" height="50">
<path d="M0 0 C15.18 0 30.36 0 46 0 C46 10.89 46 21.78 46 33 C30.82 33 15.64 33 0 33 C0 22.11 0 11.22 0 0 Z M10 6 C10 7.65 10 9.3 10 11 C11.65 11 13.3 11 15 11 C15 9.35 15 7.7 15 6 C13.35 6 11.7 6 10 6 Z M17 6 C17 7.65 17 9.3 17 11 C18.65 11 20.3 11 22 11 C22 9.35 22 7.7 22 6 C20.35 6 18.7 6 17 6 Z M24 6 C24 7.65 24 9.3 24 11 C25.65 11 27.3 11 29 11 C29 9.35 29 7.7 29 6 C27.35 6 25.7 6 24 6 Z M31 6 C31 7.65 31 9.3 31 11 C32.65 11 34.3 11 36 11 C36 9.35 36 7.7 36 6 C34.35 6 32.7 6 31 6 Z M10 13 C10 14.65 10 16.3 10 18 C11.65 18 13.3 18 15 18 C15 16.35 15 14.7 15 13 C13.35 13 11.7 13 10 13 Z M17 13 C17 14.65 17 16.3 17 18 C18.65 18 20.3 18 22 18 C22 16.35 22 14.7 22 13 C20.35 13 18.7 13 17 13 Z M24 13 C24 14.65 24 16.3 24 18 C25.65 18 27.3 18 29 18 C29 16.35 29 14.7 29 13 C27.35 13 25.7 13 24 13 Z M31 13 C31 14.65 31 16.3 31 18 C32.65 18 34.3 18 36 18 C36 16.35 36 14.7 36 13 C34.35 13 32.7 13 31 13 Z M10 20 C10 21.65 10 23.3 10 25 C11.65 25 13.3 25 15 25 C15 23.35 15 21.7 15 20 C13.35 20 11.7 20 10 20 Z M17 20 C17 21.65 17 23.3 17 25 C18.65 25 20.3 25 22 25 C22 23.35 22 21.7 22 20 C20.35 20 18.7 20 17 20 Z M24 20 C24 21.65 24 23.3 24 25 C25.65 25 27.3 25 29 25 C29 23.35 29 21.7 29 20 C27.35 20 25.7 20 24 20 Z M31 20 C31 21.65 31 23.3 31 25 C32.65 25 34.3 25 36 25 C36 23.35 36 21.7 36 20 C34.35 20 32.7 20 31 20 Z " fill="#000000" transform="translate(2,15)"/>
<path d="M0 0 C1.98 0 3.96 0 6 0 C6 1.32 6 2.64 6 4 C11.94 4 17.88 4 24 4 C24 2.68 24 1.36 24 0 C25.98 0 27.96 0 30 0 C30 1.32 30 2.64 30 4 C32.64 4 35.28 4 38 4 C38 6.97 38 9.94 38 13 C22.82 13 7.64 13 -8 13 C-8 10.03 -8 7.06 -8 4 C-5.36 4 -2.72 4 0 4 C0 2.68 0 1.36 0 0 Z M2 2 C2 3.98 2 5.96 2 8 C2.66 8 3.32 8 4 8 C4 6.02 4 4.04 4 2 C3.34 2 2.68 2 2 2 Z M26 2 C26 3.98 26 5.96 26 8 C26.66 8 27.32 8 28 8 C28 6.02 28 4.04 28 2 C27.34 2 26.68 2 26 2 Z " fill="#000000" transform="translate(10,0)"/>
</svg>
