<svg xmlns="http://www.w3.org/2000/svg" version="1.1" xmlns:xlink="http://www.w3.org/1999/xlink" width="512" height="512" x="0" y="0" viewBox="0 0 24 24" style="enable-background:new 0 0 512 512" xml:space="preserve" class=""><g><path d="M20.5 10h-17C1.57 10 0 11.57 0 13.5V24h24V13.5c0-1.93-1.57-3.5-3.5-3.5Zm.5 11H3v-7.5c0-.28.22-.5.5-.5h17c.28 0 .5.22.5.5V21Zm-9-7c-3.87 0-7 1.34-7 3s3.13 3 7 3 7-1.34 7-3-3.13-3-7-3Zm0 4c-1.38 0-2.5-.45-2.5-1s1.12-1 2.5-1 2.5.45 2.5 1-1.12 1-2.5 1ZM24 3.5v.76A5.451 5.451 0 0 0 20.5 3h-17C2.17 3 .95 3.47 0 4.26V3.5C0 1.57 1.57 0 3.5 0h17C22.43 0 24 1.57 24 3.5Zm0 5v.76A5.451 5.451 0 0 0 20.5 8h-17C2.17 8 .95 8.47 0 9.26V8.5C0 6.57 1.57 5 3.5 5h17C22.43 5 24 6.57 24 8.5Z" fill="#262626" opacity="1" data-original="#000000" class=""></path></g></svg>