<svg width="16" height="16" viewBox="0 0 16 16"  fill='#262626' xmlns="http://www.w3.org/2000/svg">
<path d="M9.10467 8.582L6.438 6.49533C5.59067 5.83267 4.40933 5.83267 3.562 6.49533L0.894667 8.58267C0.326 9.02867 0 9.69867 0 10.42V16H10V10.42C10 9.69867 9.674 9.02867 9.10467 8.582ZM8 14H2V10.42C2 10.3173 2.04667 10.2207 2.128 10.1573L4.79467 8.07067C4.916 7.97533 5.08533 7.97533 5.20467 8.07067L7.87067 10.1567C7.95267 10.2207 7.99933 10.3167 7.99933 10.42V14H8ZM4 10.6667H6V12.6667H4V10.6667ZM9.33333 5.33333H7.33333V3.33333H9.33333V5.33333ZM12.6667 5.33333H10.6667V3.33333H12.6667V5.33333ZM10.6667 6.66667H12.6667V8.66667H10.6667V6.66667ZM16 2.33333V16H11.3333V14H14V2.33333C14 2.15 13.85 2 13.6667 2H6.33333C6.15 2 6 2.15 6 2.33333V4.81533C5.34533 4.62933 4.65467 4.62867 4 4.81533V2.33333C4 1.04667 5.04667 0 6.33333 0H13.6667C14.9533 0 16 1.04667 16 2.33333Z"/>
</svg>
