<svg width="16" height="16"  viewBox="0 0 16 16" xmlns="http://www.w3.org/2000/svg" fill="#262626">
<g clip-path="url(#clip0_25_61)">
<path d="M16 12.6667V2.33333C16 1.04667 14.9533 0 13.6667 0H2.33333C1.04667 0 0 1.04667 0 2.33333V12.6667H7V14H4V16H12V14H9V12.6667H16ZM2 2.33333C2 2.14933 2.15 2 2.33333 2H13.6667C13.85 2 14 2.14933 14 2.33333V10.6667H2V2.33333ZM8.66667 6.33333C8.66667 6.82733 8.52333 7.28333 8.28933 7.68L6.66667 6.05733V3.76067C7.81467 4.058 8.66667 5.092 8.66667 6.33333ZM5.33333 6.60933L7.34667 8.62267C6.95 8.85667 6.49333 9 6 9C4.52733 9 3.33333 7.806 3.33333 6.33333C3.33333 5.092 4.18533 4.058 5.33333 3.76067V6.60933ZM10 3.33333H12.6667V5.33333H10V3.33333ZM10 6.66667H12.6667V8.66667H10V6.66667Z"/>
</g>
<defs>
<clipPath id="clip0_25_61">
<rect width="16" height="16"/>
</clipPath>
</defs>
</svg>
