<svg xmlns="http://www.w3.org/2000/svg" version="1.1" xmlns:xlink="http://www.w3.org/1999/xlink" width="512" height="512" x="0" y="0" viewBox="0 0 24 24" style="enable-background:new 0 0 512 512" xml:space="preserve"><g><path d="M20.5 2H19V0h-3v2H8V0H5v2H3.5C1.57 2 0 3.57 0 5.5V24h24V5.5C24 3.57 22.43 2 20.5 2Zm-17 3h17c.28 0 .5.22.5.5V7H3V5.5c0-.28.22-.5.5-.5Zm6.5 9v-4h4v4h-4Zm4 3v4h-4v-4h4Zm-7-3H3v-4h4v4Zm10-4h4v4h-4v-4ZM3 17h4v4H3v-4Zm14 4v-4h4v4h-4Z" fill="#262626" opacity="1" data-original="#000000"></path></g></svg>