<svg width="13" height="15" viewBox="0 0 13 15" fill="none" xmlns="http://www.w3.org/2000/svg">
<path d="M12.7219 8.49255C12.7219 9.33906 12.553 10.1771 12.2249 10.9574C11.8969 11.7378 11.4164 12.4448 10.8116 13.0371C10.2068 13.6294 9.48987 14.095 8.70282 14.4067C7.91576 14.7183 7.07442 14.8697 6.2281 14.852C5.38177 14.8344 4.54749 14.6479 3.77414 14.3037C3.00079 13.9594 2.30393 13.4643 1.72441 12.8473C1.14488 12.2302 0.694333 11.5037 0.39918 10.7103C0.104028 9.91696 -0.0297976 9.07264 0.00554751 8.22687C0.0493159 7.17426 1.63813 7.24331 1.59448 8.29286C1.55405 9.23217 1.79205 10.1625 2.2786 10.967C2.76515 11.7715 3.47855 12.4143 4.32921 12.8146C5.17988 13.215 6.12988 13.3551 7.05991 13.2174C7.98995 13.0796 8.85854 12.6701 9.55662 12.0404C10.2547 11.4106 10.7511 10.5886 10.9836 9.67761C11.216 8.76662 11.1742 7.80725 10.8632 6.92C10.5522 6.03274 9.98598 5.25715 9.23565 4.69062C8.48533 4.1241 7.58434 3.7919 6.64584 3.73574L7.43152 4.46392C8.21785 5.19243 7.10423 6.32893 6.35067 5.63019L4.34877 3.77492C4.23133 3.66705 4.13756 3.53597 4.07341 3.38997C4.00927 3.24397 3.97614 3.08624 3.97613 2.92678C3.97612 2.76731 4.00922 2.60958 4.07334 2.46357C4.13747 2.31756 4.23122 2.18646 4.34865 2.07857L6.35067 0.223306C7.12077 -0.491035 8.20321 0.674626 7.43152 1.38958L6.62395 2.13805C8.26431 2.20463 9.81528 2.90336 10.952 4.08789C12.0887 5.27242 12.723 6.85084 12.7219 8.49255Z" fill="#55B56C"/>
</svg>
