<svg xmlns="http://www.w3.org/2000/svg" version="1.1" xmlns:xlink="http://www.w3.org/1999/xlink" width="512" height="512" x="0" y="0" viewBox="0 0 24 24" style="enable-background:new 0 0 512 512" xml:space="preserve" fill='#262626' class=""><g><path d="M7.074 19.573 5.45 22.095a12.034 12.034 0 0 1-2.58-2.238l2.267-1.965a9.01 9.01 0 0 0 1.938 1.68ZM.061 10.294l2.969.423a8.92 8.92 0 0 1 .72-2.455s0-.001 0-.001L1.021 7.013a11.926 11.926 0 0 0-.962 3.281Zm3.689 5.445a8.92 8.92 0 0 1-.72-2.455l-2.969.422c.162 1.135.485 2.239.962 3.281l2.729-1.248v-.001ZM7.074 4.427 5.45 1.905c-.962.62-1.83 1.372-2.58 2.238l2.267 1.965a9.01 9.01 0 0 1 1.938-1.68ZM12 0c-1.167 0-2.32.167-3.428.498l.856 2.875A9.01 9.01 0 0 1 12 3c4.963 0 9 4.038 9 9s-4.037 9-9 9a8.98 8.98 0 0 1-2.572-.373l-.855 2.876a12.01 12.01 0 0 0 3.428.497c6.617 0 12-5.383 12-12S18.617 0 12 0Zm-1.5 6v7h-4l4.636 4.531a1.222 1.222 0 0 0 1.728 0L17.5 13h-4V6h-3Z"  opacity="1" data-original="#000000" class=""></path></g></svg>