<svg id="Layer_1" enable-background="new 0 0 450 450" height="512" viewBox="0 0 450 450" width="512" xmlns="http://www.w3.org/2000/svg">
  <g>
    <g>
      <path d="m393.2 133c-1.7 0-3.4-.9-4.3-2.5-33.7-58.4-96.6-94.7-164.1-94.7-2.8 0-5-2.2-5-5s2.2-5 5-5c71 0 137.2 38.2 172.8 99.7 1.4 2.4.6 5.4-1.8 6.8-.9.5-1.8.7-2.6.7z" stroke="#262626" stroke-width="24" fill="#262626"/>
      <path d="m224.8 56.3c-.9 0-1.7-.2-2.5-.7l-35.6-20.6c-1.5-.9-2.5-2.5-2.5-4.3s1-3.4 2.5-4.3l35.6-20.6c1.5-.9 3.5-.9 5 0s2.5 2.5 2.5 4.3v41.1c0 1.8-1 3.4-2.5 4.3-.8.6-1.7.8-2.5.8zm-25.6-25.5 20.6 11.9v-23.8z" stroke="#262626" stroke-width="24" fill="#262626"/>
    </g>
    <g>
      <path d="m30.3 230.2c-2.8 0-5-2.2-5-5 0-71 38.2-137.2 99.7-172.8 2.4-1.4 5.4-.6 6.8 1.8s.6 5.4-1.8 6.8c-58.4 33.7-94.7 96.6-94.7 164.1 0 2.9-2.3 5.1-5 5.1z" stroke="#262626" stroke-width="24" fill="#262626"/>
      <path d="m30.3 265.8c-1.8 0-3.4-1-4.3-2.5l-20.6-35.6c-.9-1.5-.9-3.5 0-5s2.5-2.5 4.3-2.5h41.1c1.8 0 3.4 1 4.3 2.5s.9 3.5 0 5l-20.6 35.6c-.8 1.6-2.4 2.5-4.2 2.5zm-11.9-35.6 11.9 20.6 11.9-20.6z" stroke="#262626" stroke-width="24" fill="#262626"/>
    </g>
    <g>
      <path d="m224.8 424.7c-71 0-137.2-38.2-172.8-99.7-1.4-2.4-.6-5.4 1.8-6.8s5.4-.6 6.8 1.8c33.7 58.4 96.6 94.7 164.1 94.7 2.8 0 5 2.2 5 5s-2.2 5-4.9 5z" stroke="#262626" stroke-width="24" fill="#262626"/>
      <path d="m224.8 445.3c-.9 0-1.7-.2-2.5-.7-1.5-.9-2.5-2.5-2.5-4.3v-41.1c0-1.8 1-3.4 2.5-4.3s3.5-.9 5 0l35.6 20.6c1.5.9 2.5 2.5 2.5 4.3s-1 3.4-2.5 4.3l-35.6 20.6c-.8.4-1.7.6-2.5.6zm5-37.5v23.8l20.6-11.9z" stroke="#262626" stroke-width="24" fill="#262626"/>
    </g>
    <g>
      <path d="m322 398.7c-1.7 0-3.4-.9-4.3-2.5-1.4-2.4-.6-5.4 1.8-6.8 58.4-33.7 94.7-96.6 94.7-164.1 0-2.8 2.2-5 5-5s5 2.2 5 5c0 71-38.2 137.2-99.7 172.8-.8.4-1.6.6-2.5.6z" stroke="#262626" stroke-width="24" fill="#262626"/>
      <path d="m439.8 230.2h-41.1c-1.8 0-3.4-1-4.3-2.5s-.9-3.5 0-5l20.6-35.6c.9-1.5 2.5-2.5 4.3-2.5s3.4 1 4.3 2.5l20.6 35.6c.9 1.5.9 3.5 0 5-1 1.6-2.6 2.5-4.4 2.5zm-32.5-10h23.8l-11.9-20.6z" stroke="#262626" stroke-width="24" fill="#262626"/>
    </g>
    <path d="m192.6 350.8c-.5 0-1.1-.1-1.6-.3-2.2-.7-3.5-2.8-3.4-5.1l6.8-94.8h-38.9c-1.5 0-3-.7-4-1.9-.9-1.2-1.3-2.8-.9-4.3l36.5-141.1c.6-2.2 2.6-3.7 4.8-3.7h68.6c1.6 0 3 .7 4 2 .9 1.2 1.3 2.9.8 4.4l-22.4 81.5h51c1.8 0 3.5 1 4.4 2.6s.8 3.6-.2 5.1l-101.3 153.4c-1 1.4-2.6 2.2-4.2 2.2zm-30.6-110.1h37.8c1.4 0 2.7.6 3.7 1.6s1.4 2.4 1.3 3.8l-5.8 81.1 85.8-129.7h-48.2c-1.6 0-3-.7-4-2-.9-1.2-1.3-2.9-.8-4.4l22.4-81.5h-58.2z" stroke="#262626" stroke-width="24" fill="#262626"/>
  </g>
</svg>