<svg id="Icons" height="512" viewBox="0 0 60 60" width="512" xmlns="http://www.w3.org/2000/svg"><path d="m9 10c.552 0 1-.448 1-1v-6c0-.552-.448-1-1-1s-1 .448-1 1v6c0 .552.448 1 1 1z"/><path d="m45 10c.552 0 1-.448 1-1v-6c0-.552-.448-1-1-1s-1 .448-1 1v6c0 .552.448 1 1 1z"/><path d="m33 10c.552 0 1-.448 1-1v-6c0-.552-.448-1-1-1s-1 .448-1 1v6c0 .552.448 1 1 1z"/><path d="m21 10c.552 0 1-.448 1-1v-6c0-.552-.448-1-1-1s-1 .448-1 1v6c0 .552.448 1 1 1z"/><path d="m2 15h50v-5c0-1.654-1.346-3-3-3h-1v2c0 1.654-1.346 3-3 3s-3-1.346-3-3v-2h-6v2c0 1.654-1.346 3-3 3s-3-1.346-3-3v-2h-6v2c0 1.654-1.346 3-3 3s-3-1.346-3-3v-2h-6v2c0 1.654-1.346 3-3 3s-3-1.346-3-3v-2h-1c-1.654 0-3 1.346-3 3z"/><path d="m57.582 52.564c.264-.271.418-.644.418-1.034 0-.56-.313-1.063-.817-1.315l-1.724-.872c-2.132-1.066-3.459-3.211-3.459-5.593v-6.75c0-3.058-1.703-5.803-4.444-7.164-.336-.167-.551-.507-.556-.882-.022-1.629-1.368-2.954-3-2.954s-2.978 1.325-3 2.954c-.005.375-.22.715-.556.882-2.741 1.361-4.444 4.106-4.444 7.164v6.75c0 2.382-1.327 4.526-3.463 5.595l-1.716.868c-.508.254-.821.758-.821 1.317 0 .811.659 1.47 1.47 1.47h25.061c.391 0 .764-.154 1.052-.436z"/><path d="m46.793 24.88c.132-.271.207-.569.207-.88 0-1.103-.897-2-2-2s-2 .897-2 2c0 .035.011.07.013.105.32-.065.649-.105.987-.105 1.035 0 1.991.333 2.793.88z"/><path d="m33 32c-1.103 0-2 .897-2 2s.897 2 2 2c.389 0 .764-.115 1.087-.325.116-.884.347-1.737.682-2.541-.325-.673-.999-1.135-1.769-1.135z"/><path d="m33.381 45.96c.398-.652.619-1.411.619-2.21v-1.479c-.303-.174-.646-.271-1-.271-1.103 0-2 .897-2 2s.897 2 2 2c.131 0 .257-.016.381-.04z"/><path d="m44 58c1.859 0 3.411-1.279 3.858-3h-7.716c.447 1.721 1.999 3 3.858 3z"/><circle cx="33" cy="24" r="2"/><circle cx="21" cy="34" r="2"/><circle cx="21" cy="44" r="2"/><circle cx="21" cy="24" r="2"/><circle cx="9" cy="34" r="2"/><circle cx="9" cy="44" r="2"/><path d="m5 51h23.043c.169-1.104.855-2.062 1.88-2.574l1.494-.756c-1.42-.615-2.416-2.027-2.416-3.67 0-2.206 1.794-4 4-4 .342 0 .674.059 1 .143v-2.286c-.325.084-.658.143-1 .143-2.206 0-4-1.794-4-4s1.794-4 4-4c1.099 0 2.123.458 2.858 1.21.829-1.163 1.898-2.161 3.188-2.894.192-1.389.974-2.585 2.069-3.368-.075-.31-.115-.629-.115-.947 0-2.206 1.794-4 4-4s4 1.794 4 4c0 .861-.281 1.683-.778 2.362.369.585.634 1.241.732 1.953 1.213.69 2.238 1.61 3.046 2.684v-13.999h-50.001v31c0 1.654 1.346 3 3 3zm28-31c2.206 0 4 1.794 4 4s-1.794 4-4 4-4-1.794-4-4 1.794-4 4-4zm-12 0c2.206 0 4 1.794 4 4s-1.794 4-4 4-4-1.794-4-4 1.794-4 4-4zm0 10c2.206 0 4 1.794 4 4s-1.794 4-4 4-4-1.794-4-4 1.794-4 4-4zm0 10c2.206 0 4 1.794 4 4s-1.794 4-4 4-4-1.794-4-4 1.794-4 4-4zm-12-10c2.206 0 4 1.794 4 4s-1.794 4-4 4-4-1.794-4-4 1.794-4 4-4zm0 10c2.206 0 4 1.794 4 4s-1.794 4-4 4-4-1.794-4-4 1.794-4 4-4z"/></svg>