<svg id="Layer_1" enable-background="new 0 0 128 128" viewBox="0 0 128 128" xmlns="http://www.w3.org/2000/svg"><path d="m105 33v85c0 2.2-1.8 4-4 4h-74c-2.2 0-4-1.8-4-4v-108c0-2.2 1.8-4 4-4h51v15c0 6.6 5.4 12 12 12z" fill="#4dc443"/><path d="m105 33h-15c-6.6 0-12-5.4-12-12v-15z" fill="#74e269"/><path d="m88 101h-74c-2.2 0-4-1.8-4-4v-29c0-2.2 1.8-4 4-4h74c2.2 0 4 1.8 4 4v29c0 2.2-1.8 4-4 4z" fill="#2fa528"/><g fill="none"><path d="m92.5 68v29c0 2.5-2 4.5-4.5 4.5h-64.5v16.5c0 1.9 1.6 3.5 3.5 3.5h74c1.9 0 3.5-1.6 3.5-3.5v-84.5h-14.5c-6.9 0-12.5-5.6-12.5-12.5v-14.5h-50.5c-1.9 0-3.5 1.6-3.5 3.5v53.5h64.5c2.5 0 4.5 2 4.5 4.5z"/><path d="m91.5 97v-29c0-1.9-1.6-3.5-3.5-3.5h-64.5v36h64.5c1.9 0 3.5-1.6 3.5-3.5z"/><path d="m14 64.5c-1.9 0-3.5 1.6-3.5 3.5v29c0 1.9 1.6 3.5 3.5 3.5h8.5v-36z"/></g><path d="m105.5 32.9c0-.1-.1-.2-.1-.3l-27-27c-.1-.1-.1-.1-.2-.1 0 0 0 0-.1 0 0 0 0 0-.1 0h-51c-2.5 0-4.5 2-4.5 4.5v53.5h-8.5c-2.5 0-4.5 2-4.5 4.5v29c0 2.5 2 4.5 4.5 4.5h8.5v16.5c0 2.5 2 4.5 4.5 4.5h74c2.5 0 4.5-2 4.5-4.5v-85.1c0 .1 0 .1 0 0zm-1.7-.4h-13.8c-6.3 0-11.5-5.2-11.5-11.5v-13.8zm-89.8 68c-1.9 0-3.5-1.6-3.5-3.5v-29c0-1.9 1.6-3.5 3.5-3.5h8.5 1 64.5c1.9 0 3.5 1.6 3.5 3.5v29c0 1.9-1.6 3.5-3.5 3.5h-64.5-1zm90.5 17.5c0 1.9-1.6 3.5-3.5 3.5h-74c-1.9 0-3.5-1.6-3.5-3.5v-16.5h64.5c2.5 0 4.5-2 4.5-4.5v-29c0-2.5-2-4.5-4.5-4.5h-64.5v-53.5c0-1.9 1.6-3.5 3.5-3.5h50.5v14.5c0 6.9 5.6 12.5 12.5 12.5h14.5z"/><g><g><path d="m18.4 83.6h7.4v-2.4h-7.4v-4h8.4v-2.4h-11.3v15.4h11.6v-2.4h-8.7z" fill="#fff"/></g><g><path d="m42.7 74.8h-3.1l-3.9 5.5-3.9-5.5h-3.3l5.5 7.5-5.8 7.9h3.3l4.1-5.9 4.2 5.9h3.3l-5.8-8z" fill="#fff"/></g><g><path d="m48.1 78.6c.5-.5 1.1-.9 1.7-1.1.7-.3 1.4-.4 2.2-.4s1.6.2 2.2.5c.7.3 1.3.8 1.9 1.4l1.8-1.7c-.7-.9-1.6-1.5-2.6-1.9s-2.2-.6-3.5-.6c-1.2 0-2.3.2-3.3.6s-1.9.9-2.6 1.6-1.3 1.6-1.7 2.5c-.4 1-.6 2-.6 3.2s.2 2.2.6 3.2 1 1.8 1.7 2.5 1.6 1.3 2.6 1.7 2.1.6 3.3.6c1.3 0 2.4-.2 3.5-.7 1-.4 1.9-1.1 2.6-1.9l-1.8-1.8c-.6.6-1.2 1.1-1.9 1.4s-1.4.5-2.2.5-1.5-.1-2.2-.4-1.2-.6-1.7-1.1-.9-1.1-1.1-1.7-.4-1.4-.4-2.2.1-1.5.4-2.2.6-1.5 1.1-2z" fill="#fff"/></g><g><path d="m63.7 83.6h7.4v-2.4h-7.4v-4h8.3v-2.4h-11.2v15.4h11.6v-2.4h-8.7z" fill="#fff"/></g><g><path d="m78.4 87.8v-13h-2.9v15.4h11v-2.4z" fill="#fff"/></g></g></svg>