<svg xmlns="http://www.w3.org/2000/svg" version="1.1" xmlns:xlink="http://www.w3.org/1999/xlink" width="1000" height="1000"><g clip-path="url(#SvgjsClipPath1162)"><rect width="1000" height="1000" fill="#262626"></rect><g transform="matrix(1.8,0,0,1.8,50,50)"><svg xmlns="http://www.w3.org/2000/svg" version="1.1" xmlns:xlink="http://www.w3.org/1999/xlink" width="500" height="500"><svg id="Layer_2" data-name="Layer 2" xmlns="http://www.w3.org/2000/svg" viewBox="0 0 500 500">
  <defs>
    <style>
      .cls-1 {
        fill: #fff;
      }

      .cls-2 {
        fill: #55b46b;
      }

      .cls-3 {
        fill: #223e7b;
      }
    </style>
  <clipPath id="SvgjsClipPath1162"><rect width="1000" height="1000" x="0" y="0" rx="400" ry="400"></rect></clipPath></defs>
  <g id="Layer_1-2" data-name="Layer 1">
    <g>
      <rect class="cls-1" x="0" y="0" width="500" height="500" rx="95.04" ry="95.04"></rect>
      <g>
        <path class="cls-3" d="M360.04,204.7c0,44.52-16.83,74.97-35.22,95.35-20.98,23.22-44.42,49.41-98.44,53.3h-88.34v-74.33h85.93c23.66,0,43.14,3.42,58.69,25.5,7.87-6.58,14.76-14.16,21.97-22.14,6.68-7.39,12.01-15.47,16.32-24.06-11.26-7.75-24.05-13.69-31.32-16.47,24.13-13.51,44.42-34.76,44.42-72.9,0-24.13-7.73-42.96-23.18-58.41-19.31-19.31-49.72-29.93-88.35-29.93H65.63v65.17h145.78c31.39,0,48.77,12.55,48.77,34.76,0,26.07-20.76,36.7-53.59,36.7h-68.55s-72.41,0-72.41,0v201.3h160.75c87.54,0,131.95-55.97,152.79-79.39,26.66-29.95,55.21-76.94,55.21-145.61v-11.16h-74.34v22.34Z"></path>
        <path class="cls-2" d="M395.85,361.63c-8.45,9.6-20.18,22.84-35.81,36v21.78h74.34v-112.35c-9.32,17.91-21.02,34.88-35.19,50.79l-3.34,3.78Z"></path>
        <path class="cls-2" d="M363.73,105.05h0c-13.31,21.65-10.13,47.79,7.1,58.39h0c17.24,10.6,42,1.64,55.31-20h0c13.31-21.65,10.13-47.79-7.1-58.39h0c-17.24-10.6-42-1.64-55.31,20Z"></path>
      </g>
    </g>
  </g>
</svg></svg></g></g></svg>