<?xml version="1.0" encoding="UTF-8"?>
<svg xmlns="http://www.w3.org/2000/svg" xmlns:xlink="http://www.w3.org/1999/xlink" version="1.1" id="Capa_1" x="0px" y="0px" viewBox="0 0 511.435 511.435" fill="#262626" style="enable-background:new 0 0 511.435 511.435;" xml:space="preserve" width="512" height="512">
<g>
	
		<polyline style="fill:none;stroke:#000000;stroke-width:40;stroke-linecap:round;stroke-linejoin:round;stroke-miterlimit:10;" points="&#10;&#9;&#9;258.842,252.727 237.317,288.92 273.51,288.92 250.908,326.189 &#9;"/>
	<g>
		
			<rect x="73.205" y="15" style="fill:none;stroke:#000000;stroke-width:40;stroke-linecap:round;stroke-linejoin:round;stroke-miterlimit:10;" width="364.417" height="370.417"/>
		<g>
			<g>
				<g>
					
						<line style="fill:none;stroke:#000000;stroke-width:40;stroke-linecap:round;stroke-linejoin:round;stroke-miterlimit:10;" x1="315.413" y1="134.539" x2="315.413" y2="74.693"/>
					
						<line style="fill:none;stroke:#000000;stroke-width:40;stroke-linecap:round;stroke-linejoin:round;stroke-miterlimit:10;" x1="255.413" y1="134.539" x2="255.413" y2="74.693"/>
					
						<line style="fill:none;stroke:#000000;stroke-width:40;stroke-linecap:round;stroke-linejoin:round;stroke-miterlimit:10;" x1="195.413" y1="134.539" x2="195.413" y2="74.693"/>
				</g>
				
					<rect x="133.079" y="74.693" style="fill:none;stroke:#000000;stroke-width:40;stroke-linecap:round;stroke-linejoin:round;stroke-miterlimit:10;" width="244.669" height="59.846"/>
			</g>
			<g>
				
					<line style="fill:none;stroke:#000000;stroke-width:40;stroke-linecap:round;stroke-linejoin:round;stroke-miterlimit:10;" x1="375.413" y1="194.132" x2="375.413" y2="194.132"/>
				
					<line style="fill:none;stroke:#000000;stroke-width:40;stroke-linecap:round;stroke-linejoin:round;stroke-miterlimit:10;" x1="315.413" y1="194.132" x2="315.413" y2="194.132"/>
				
					<line style="fill:none;stroke:#000000;stroke-width:40;stroke-linecap:round;stroke-linejoin:round;stroke-miterlimit:10;" x1="255.413" y1="194.132" x2="255.413" y2="194.132"/>
				
					<line style="fill:none;stroke:#000000;stroke-width:40;stroke-linecap:round;stroke-linejoin:round;stroke-miterlimit:10;" x1="195.413" y1="194.132" x2="195.413" y2="194.132"/>
				
					<line style="fill:none;stroke:#000000;stroke-width:40;stroke-linecap:round;stroke-linejoin:round;stroke-miterlimit:10;" x1="135.413" y1="194.132" x2="135.413" y2="194.132"/>
			</g>
		</g>
		<g>
			
				<polyline style="fill:none;stroke:#000000;stroke-width:40;stroke-linecap:round;stroke-linejoin:round;stroke-miterlimit:10;" points="&#10;&#9;&#9;&#9;&#9;405.582,385.417 405.582,496.435 105.244,496.435 105.244,385.417 &#9;&#9;&#9;"/>
			<g>
				
					<line style="fill:none;stroke:#000000;stroke-width:40;stroke-linecap:round;stroke-linejoin:round;stroke-miterlimit:10;" x1="345.413" y1="385.417" x2="345.413" y2="436.926"/>
				
					<line style="fill:none;stroke:#000000;stroke-width:40;stroke-linecap:round;stroke-linejoin:round;stroke-miterlimit:10;" x1="285.413" y1="385.417" x2="285.413" y2="436.926"/>
				
					<line style="fill:none;stroke:#000000;stroke-width:40;stroke-linecap:round;stroke-linejoin:round;stroke-miterlimit:10;" x1="225.413" y1="385.417" x2="225.413" y2="436.926"/>
				
					<line style="fill:none;stroke:#000000;stroke-width:40;stroke-linecap:round;stroke-linejoin:round;stroke-miterlimit:10;" x1="165.413" y1="385.417" x2="165.413" y2="436.926"/>
			</g>
		</g>
		<g>
			<path style="fill:none;stroke:#000000;stroke-width:40;stroke-linecap:round;stroke-linejoin:round;stroke-miterlimit:10;" d="&#10;&#9;&#9;&#9;&#9;M438.23,224.316h28.092c16.619,0,30.092-13.473,30.092-30.092l0,0c0-16.619-13.473-30.092-30.092-30.092H438.23"/>
			<path style="fill:none;stroke:#000000;stroke-width:40;stroke-linecap:round;stroke-linejoin:round;stroke-miterlimit:10;" d="&#10;&#9;&#9;&#9;&#9;M73.205,224.316H45.113c-16.619,0-30.092-13.473-30.092-30.092l0,0c0-16.619,13.472-30.092,30.092-30.092h28.092"/>
		</g>
	</g>
</g>
</svg>
