<svg width="24" height="24" viewBox="0 0 24 24" fill="none" xmlns="http://www.w3.org/2000/svg">
  <path d="M14 2H6C5.46957 2 4.96086 2.21071 4.58579 2.58579C4.21071 2.96086 4 3.46957 4 4V20C4 20.5304 4.21071 21.0391 4.58579 21.4142C4.96086 21.7893 5.46957 22 6 22H18C18.5304 22 19.0391 21.7893 19.4142 21.4142C19.7893 21.0391 20 20.5304 20 20V8L14 2Z" stroke="#163b7c" stroke-width="1.5" stroke-linecap="round" stroke-linejoin="round" fill="none"/>
  <path d="M14 2V8H20" stroke="#163b7c" stroke-width="1.5" stroke-linecap="round" stroke-linejoin="round"/>
  <path d="M7 12H9M7 15H11M7 18H11" stroke="#163b7c" stroke-width="1.5" stroke-linecap="round"/>
  <path d="M13 12H17M13 15H17M13 18H17" stroke="#163b7c" stroke-width="1.5" stroke-linecap="round"/>
  <circle cx="19" cy="12" r="1.5" fill="#163b7c"/>
  <circle cx="19" cy="15" r="1.5" fill="#163b7c"/>
  <circle cx="19" cy="18" r="1.5" fill="#163b7c"/>
</svg>

