<svg width="10" height="12" viewBox="0 0 10 12" fill="#262626" xmlns="http://www.w3.org/2000/svg">
<path d="M10 2.5V9.5C10 10.8785 8.8785 12 7.5 12H2.5C1.1215 12 0 10.8785 0 9.5V2.5C0 1.1215 1.1215 0 2.5 0H3C3.276 0 3.5 0.224 3.5 0.5C3.5 0.776 3.276 1 3 1H2.5C1.673 1 1 1.673 1 2.5V9.5C1 10.327 1.673 11 2.5 11H7.5C8.327 11 9 10.327 9 9.5V2.5C9 2.1555 8.886 1.831 8.671 1.5625C8.4985 1.347 8.533 1.0325 8.7485 0.8595C8.9635 0.6865 9.278 0.7205 9.4515 0.937C9.8055 1.378 10 1.934 10 2.5ZM3 9.5H7C7.276 9.5 7.5 9.276 7.5 9C7.5 8.724 7.276 8.5 7 8.5H3C2.724 8.5 2.5 8.724 2.5 9C2.5 9.276 2.724 9.5 3 9.5ZM4.5 5.5C4.776 5.5 5 5.276 5 5V2C5 1.4485 5.4485 1 6 1C6.5515 1 7 1.4485 7 2V5.75C7 5.888 6.888 6 6.75 6C6.612 6 6.5 5.888 6.5 5.75V2.5C6.5 2.224 6.276 2 6 2C5.724 2 5.5 2.224 5.5 2.5V5.75C5.5 6.439 6.061 7 6.75 7C7.439 7 8 6.439 8 5.75V2C8 0.897 7.103 0 6 0C4.897 0 4 0.897 4 2V5C4 5.276 4.224 5.5 4.5 5.5ZM3 7.5H4.25C4.526 7.5 4.75 7.276 4.75 7C4.75 6.724 4.526 6.5 4.25 6.5H3C2.724 6.5 2.5 6.724 2.5 7C2.5 7.276 2.724 7.5 3 7.5Z" fill="#262626"/>
</svg>
