<svg width="27" height="24" viewBox="0 0 27 24" fill="none" xmlns="http://www.w3.org/2000/svg">
<path d="M19.6641 1C21.2481 1 22.7726 1.64121 23.957 2.83301C25.2582 4.1424 26.0123 6.01148 26 7.96094C25.9902 9.51059 25.3706 11.2609 24.0322 13.1758C22.9981 14.6553 21.5466 16.2182 19.7002 17.8164C16.8696 20.2664 14.0784 21.9706 13.5 22.3154C12.9203 21.9723 10.1073 20.2681 7.26465 17.8164C5.41137 16.218 3.95862 14.6546 2.92871 13.1758C1.59504 11.2607 0.990301 9.51179 1 7.96387C1.01191 6.08432 1.68454 4.33695 2.87207 3.03223C4.07664 1.70885 5.66027 1 7.33594 1C9.47614 1.00002 11.4735 2.19967 12.6396 4.16602L13.5 5.61719L14.3604 4.16602C15.5265 2.19972 17.5239 1.00005 19.6641 1Z" stroke="#55B56C" stroke-width="2"/>
</svg>
