<svg width="16" height="16" viewBox="0 0 16 16" fill="#262626" xmlns="http://www.w3.org/2000/svg">
<g clip-path="url(#clip0_40_12)">
<path d="M12 6C12 4.4087 11.3679 2.88258 10.2426 1.75736C9.11742 0.632141 7.5913 0 6 0C4.4087 0 2.88258 0.632141 1.75736 1.75736C0.632141 2.88258 0 4.4087 0 6L0 12H6C7.59076 11.9982 9.11586 11.3655 10.2407 10.2407C11.3655 9.11586 11.9982 7.59076 12 6ZM6 10H2V6C2 5.20887 2.2346 4.43552 2.67412 3.77772C3.11365 3.11992 3.73836 2.60723 4.46927 2.30448C5.20017 2.00173 6.00444 1.92252 6.78036 2.07686C7.55629 2.2312 8.26902 2.61216 8.82843 3.17157C9.38784 3.73098 9.7688 4.44372 9.92314 5.21964C10.0775 5.99556 9.99827 6.79983 9.69552 7.53073C9.39277 8.26164 8.88008 8.88635 8.22228 9.32588C7.56448 9.7654 6.79113 10 6 10ZM16 10.6667V16H10.6667C9.7314 15.999 8.81283 15.7522 8.0031 15.2841C7.19337 14.8161 6.52097 14.1433 6.05333 13.3333C6.80569 13.3281 7.55272 13.2066 8.268 12.9733C8.57769 13.2977 8.94991 13.5559 9.36218 13.7323C9.77446 13.9088 10.2182 13.9999 10.6667 14H14V10.6667C13.9997 10.2178 13.9083 9.77367 13.7314 9.36114C13.5544 8.94862 13.2957 8.57628 12.9707 8.26667C13.2047 7.55195 13.3271 6.80538 13.3333 6.05333C14.1433 6.52097 14.8161 7.19337 15.2841 8.0031C15.7522 8.81283 15.999 9.7314 16 10.6667Z" fill="#262626"/>
</g>
<defs>
<clipPath id="clip0_40_12">
<rect width="16" height="16" fill="#262626"/>
</clipPath>
</defs>
</svg>
