<svg id="Layer_1" viewBox="0 0 128 128" xmlns="http://www.w3.org/2000/svg" data-name="Layer 1"><path d="m126 104h-124a2.0001 2.0001 0 0 0 -2 2v4a6.00656 6.00656 0 0 0 6 6h116a6.00656 6.00656 0 0 0 6-6v-4a2.0001 2.0001 0 0 0 -2-2zm-2 6a2.00229 2.00229 0 0 1 -2 2h-116a2.00229 2.00229 0 0 1 -2-2v-2h120z"/><path d="m64 100a23 23 0 1 0 -23-23 23.02588 23.02588 0 0 0 23 23zm0-42a19 19 0 1 1 -19 19 19.02161 19.02161 0 0 1 19-19z"/><rect height="14" rx="3" width="14" x="30" y="36.005"/><rect height="14" rx="3" width="14" x="48" y="36.005"/><rect height="14" rx="3" width="14" x="66" y="36.005"/><rect height="14" rx="3" width="14" x="84" y="36.005"/><path d="m98.8374 85.53125a2.03184 2.03184 0 0 0 2.81787-.24512c1.50537-1.791 2.38135-4.90918 2.34375-8.33984-.0376-3.43359-.98437-6.52637-2.53271-8.27246a1.99962 1.99962 0 1 0 -2.99316 2.65234 9.48616 9.48616 0 0 1 1.52585 5.66309 9.5842 9.5842 0 0 1 -1.40625 5.72461 1.99973 1.99973 0 0 0 .24465 2.81738z"/><path d="m92.74219 81.8877a2.03974 2.03974 0 0 0 2.82373-.16309 7.93688 7.93688 0 0 0 -.11084-9.291 2 2 0 1 0 -2.91016 2.74414 3.45445 3.45445 0 0 1 .46729 1.92871 3.50523 3.50523 0 0 1 -.43262 1.958 1.9994 1.9994 0 0 0 .1626 2.82324z"/><path d="m29.35791 68.50391a2.001 2.001 0 0 0 -2.82373.16895c-1.54785 1.74609-2.49463 4.83789-2.5332 8.27344-.0376 3.4306.83838 6.54871 2.34369 8.33972a2.035 2.035 0 0 0 2.81793.24524 1.99965 1.99965 0 0 0 .24463-2.81738 9.58284 9.58284 0 0 1 -1.40623-5.72365 9.48431 9.48431 0 0 1 1.52637-5.66309 2.00005 2.00005 0 0 0 -.16946-2.82323z"/><path d="m35.37207 72.35059a1.99982 1.99982 0 0 0 -2.82715.083 7.937 7.937 0 0 0 -.111 9.29089 1.99967 1.99967 0 1 0 2.98645-2.66 3.504 3.504 0 0 1 -.43262-1.959 3.453 3.453 0 0 1 .46729-1.92773 1.99984 1.99984 0 0 0 -.08297-2.82716z"/><path d="m64 83a6.00478 6.00478 0 0 0 5.65-4h7.35a2 2 0 0 0 0-4h-7.35a6.01974 6.01974 0 0 0 -3.65-3.65v-7.35a2 2 0 0 0 -4 0v7.35a5.996 5.996 0 0 0 2 11.65z"/><path d="m104.71729 87.85938a5.99623 5.99623 0 0 1 -10.11157-1.50867c-.17743.01569-.35559.0282-.5354.0282h-.00049a5.98974 5.98974 0 0 1 -3.98878-1.50491c-.07013-.0625-.13287-.13086-.19965-.196a27.11463 27.11463 0 0 1 -11.78484 15.322h45.90344v-65a6.00656 6.00656 0 0 0 -6-6h-8v39.28027a3.99174 3.99174 0 0 1 -2.60382 3.73547 21.53764 21.53764 0 0 1 .60284 4.8866c.04834 4.42481-1.14795 8.41895-3.28173 10.95704z"/><path d="m38.11859 84.678c-.06708.06549-.13013.13416-.20062.197a5.98784 5.98784 0 0 1 -3.98682 1.5127c-.18152 0-.36151-.01251-.54071-.02863a5.95883 5.95883 0 0 1 -5.50031 3.62726h-.00049a5.99458 5.99458 0 0 1 -4.60645-2.126c-2.13428-2.53906-3.33057-6.5332-3.28223-10.958a21.55576 21.55576 0 0 1 .60358-4.88715 3.99109 3.99109 0 0 1 -2.60454-3.73491v-39.28027h-8a6.00656 6.00656 0 0 0 -6 6v65h45.9035a27.11485 27.11485 0 0 1 -11.78491-15.322z"/><path d="m26 64.35376v-32.34839h76v32.34833a5.97241 5.97241 0 0 1 2.46 1.66681 11.6053 11.6053 0 0 1 1.54 2.2597v-44.28021a6.00656 6.00656 0 0 0 -6-6h-9v-4a2 2 0 0 0 -4 0v4h-46v-4a2 2 0 0 0 -4 0v4h-9a6.00656 6.00656 0 0 0 -6 6v44.28046a11.605 11.605 0 0 1 1.54016-2.25995 5.97207 5.97207 0 0 1 2.45984-1.66675z"/></svg>