<svg width="27" height="27" viewBox="0 0 27 27" fill="none" xmlns="http://www.w3.org/2000/svg">
<path d="M13.5 0C6.03793 0 0 6.03846 0 13.5C0 20.9621 6.03846 27 13.5 27C20.9621 27 27 20.9615 27 13.5C27 6.03793 20.9615 0 13.5 0ZM13.5 24.8906C7.20389 24.8906 2.10938 19.7957 2.10938 13.5C2.10938 7.20389 7.20431 2.10938 13.5 2.10938C19.7961 2.10938 24.8906 7.20431 24.8906 13.5C24.8906 19.7961 19.7957 24.8906 13.5 24.8906Z" fill="#55B56C"/>
<path d="M13.5 6.79639C12.9175 6.79639 12.4453 7.26857 12.4453 7.85107V14.6429C12.4453 15.2254 12.9175 15.6976 13.5 15.6976C14.0825 15.6976 14.5547 15.2254 14.5547 14.6429V7.85107C14.5547 7.26857 14.0825 6.79639 13.5 6.79639Z" fill="#55B56C"/>
<path d="M13.5 19.8364C14.2864 19.8364 14.9238 19.199 14.9238 18.4126C14.9238 17.6262 14.2864 16.9888 13.5 16.9888C12.7136 16.9888 12.0762 17.6262 12.0762 18.4126C12.0762 19.199 12.7136 19.8364 13.5 19.8364Z" fill="#55B56C"/>
</svg>
