<svg width="14" height="14" viewBox="0 0 14 14" fill="#262626" xmlns="http://www.w3.org/2000/svg">
<path d="M4.08333 3.5H13.4167C13.5714 3.5 13.7197 3.43854 13.8291 3.32915C13.9385 3.21975 14 3.07138 14 2.91667C14 2.76196 13.9385 2.61358 13.8291 2.50419C13.7197 2.39479 13.5714 2.33333 13.4167 2.33333H4.08333C3.92862 2.33333 3.78025 2.39479 3.67085 2.50419C3.56146 2.61358 3.5 2.76196 3.5 2.91667C3.5 3.07138 3.56146 3.21975 3.67085 3.32915C3.78025 3.43854 3.92862 3.5 4.08333 3.5Z" fill="#262626"/>
<path d="M13.4167 6.41667H4.08333C3.92862 6.41667 3.78025 6.47813 3.67085 6.58752C3.56146 6.69692 3.5 6.84529 3.5 7C3.5 7.15471 3.56146 7.30308 3.67085 7.41248C3.78025 7.52188 3.92862 7.58333 4.08333 7.58333H13.4167C13.5714 7.58333 13.7197 7.52188 13.8291 7.41248C13.9385 7.30308 14 7.15471 14 7C14 6.84529 13.9385 6.69692 13.8291 6.58752C13.7197 6.47813 13.5714 6.41667 13.4167 6.41667Z" fill="#262626"/>
<path d="M13.4167 10.5H4.08333C3.92862 10.5 3.78025 10.5615 3.67085 10.6709C3.56146 10.7803 3.5 10.9286 3.5 11.0833C3.5 11.238 3.56146 11.3864 3.67085 11.4958C3.78025 11.6052 3.92862 11.6667 4.08333 11.6667H13.4167C13.5714 11.6667 13.7197 11.6052 13.8291 11.4958C13.9385 11.3864 14 11.238 14 11.0833C14 10.9286 13.9385 10.7803 13.8291 10.6709C13.7197 10.5615 13.5714 10.5 13.4167 10.5Z" fill="#262626"/>
<path d="M1.16667 4.08333C1.811 4.08333 2.33333 3.561 2.33333 2.91667C2.33333 2.27233 1.811 1.75 1.16667 1.75C0.522334 1.75 0 2.27233 0 2.91667C0 3.561 0.522334 4.08333 1.16667 4.08333Z" fill="#262626"/>
<path d="M1.16667 8.16667C1.811 8.16667 2.33333 7.64433 2.33333 7C2.33333 6.35567 1.811 5.83333 1.16667 5.83333C0.522334 5.83333 0 6.35567 0 7C0 7.64433 0.522334 8.16667 1.16667 8.16667Z" fill="#262626"/>
<path d="M1.16667 12.25C1.811 12.25 2.33333 11.7277 2.33333 11.0833C2.33333 10.439 1.811 9.91666 1.16667 9.91666C0.522334 9.91666 0 10.439 0 11.0833C0 11.7277 0.522334 12.25 1.16667 12.25Z" fill="#262626"/>
</svg>
