<svg id="Layer_1" height="512" viewBox="0 0 60 60" width="512" xmlns="http://www.w3.org/2000/svg"><path d="m50.79 21c-.01-.02-.03-.03-.04-.05-2.1-3.6-5.1-6.6-8.7-8.7-.02-.01-.03-.03-.04-.04-.02-.01-.04-.01-.06-.02-3.53-2.02-7.6-3.19-11.95-3.19s-8.42 1.17-11.94 3.2c-.02.01-.04.01-.06.02s-.03.03-.04.04c-3.6 2.1-6.6 5.1-8.7 8.7-.02.01-.03.02-.04.04s-.01.04-.02.06c-2.03 3.52-3.2 7.59-3.2 11.94 0 .55.45 1 1 1h19.14c.45 1.72 2 3 3.86 3s3.41-1.28 3.86-3h19.14c.55 0 1-.45 1-1 0-4.35-1.17-8.42-3.2-11.94 0-.02 0-.04-.01-.06zm-32.64-6.52.98 1.7c.19.32.52.5.87.5.17 0 .34-.04.5-.13.48-.28.64-.89.37-1.37l-.98-1.71c2.75-1.43 5.84-2.3 9.12-2.45v1.98c0 .55.45 1 1 1s1-.45 1-1v-1.97c3.28.15 6.37 1.02 9.12 2.45l-.98 1.71c-.28.48-.11 1.09.37 1.37.16.09.33.13.5.13.35 0 .68-.18.87-.5l.98-1.7c2.68 1.72 4.96 4 6.67 6.67l-1.7.98c-.48.28-.64.89-.37 1.37.19.32.52.5.87.5.17 0 .34-.04.5-.13l1.7-.98c1.43 2.75 2.3 5.84 2.45 9.12h-18.13c-.16-.6-.45-1.14-.84-1.6l6.81-9.83c.31-.45.2-1.08-.25-1.39-.46-.31-1.08-.2-1.39.25l-6.8 9.83c-.45-.18-.91-.28-1.39-.28-1.86 0-3.41 1.28-3.86 3h-18.11c.15-3.28 1.02-6.37 2.45-9.12l1.71.98c.16.09.33.13.5.13.35 0 .68-.18.87-.5.28-.48.11-1.09-.37-1.37l-1.7-.98c1.71-2.66 3.99-4.94 6.66-6.66zm11.85 20.52c-1.1 0-2-.9-2-2s.9-2 2-2 2 .9 2 2-.9 2-2 2z"/><path d="m16.3 43.61-2.67-.33-1.13-2.44c-.16-.35-.52-.58-.91-.58s-.74.23-.91.58l-1.13 2.44-2.67.33c-.39.05-.71.31-.83.68s-.02.78.27 1.04l1.97 1.83-.51 2.64c-.07.38.08.77.39 1 .17.14.38.2.58.2.17 0 .33-.04.49-.13l2.35-1.31 2.35 1.31c.34.19.76.16 1.07-.07s.47-.62.39-1l-.51-2.64 1.97-1.83c.28-.27.39-.67.27-1.04s-.44-.63-.83-.68zm-3.18 2.47c-.25.24-.37.58-.3.92l.21 1.08-.96-.53c-.15-.08-.32-.13-.49-.13s-.33.04-.49.13l-.96.53.21-1.08c.07-.34-.05-.69-.3-.92l-.8-.75 1.09-.13c.34-.04.64-.26.79-.57l.46-.99.46.99c.15.31.44.53.79.57l1.09.13z"/><path d="m35.54 44.3c-.12-.37-.44-.64-.83-.68l-2.67-.33-1.14-2.44c-.16-.35-.52-.58-.91-.58s-.74.23-.91.58l-1.13 2.44-2.67.33c-.39.05-.71.31-.83.68s-.02.78.27 1.04l1.97 1.83-.51 2.64c-.07.38.08.77.39 1 .17.13.38.19.59.19.17 0 .33-.04.49-.13l2.35-1.3 2.35 1.31c.34.19.76.16 1.07-.07s.47-.62.39-1l-.51-2.64 1.97-1.83c.29-.27.39-.67.27-1.04zm-4.01 1.78c-.25.24-.37.58-.3.92l.21 1.08-.96-.53c-.15-.08-.32-.13-.49-.13s-.33.04-.49.13l-.96.53.21-1.08c.07-.34-.05-.69-.3-.92l-.8-.75 1.09-.13c.34-.04.64-.26.79-.57l.47-.99.46.99c.15.31.44.53.79.57l1.09.13z"/><path d="m53.95 44.3c-.12-.37-.44-.64-.83-.68l-2.67-.33-1.14-2.44c-.16-.35-.52-.58-.91-.58s-.74.23-.91.58l-1.13 2.44-2.67.33c-.39.05-.71.31-.83.68s-.02.78.27 1.04l1.97 1.83-.51 2.64c-.07.38.08.77.39 1 .17.13.38.19.59.19.17 0 .33-.04.49-.13l2.35-1.31 2.35 1.31c.34.19.76.16 1.07-.07s.47-.62.39-1l-.51-2.64 1.97-1.83c.29-.26.39-.66.27-1.03zm-4.01 1.78c-.25.24-.37.58-.3.92l.21 1.08-.96-.53c-.15-.08-.32-.13-.49-.13s-.33.04-.49.13l-.96.53.21-1.08c.07-.34-.05-.69-.3-.92l-.8-.75 1.09-.13c.34-.04.64-.26.79-.57l.46-.99.46.99c.15.31.44.53.79.57l1.09.13z"/></svg>