<svg width="16" height="16" viewBox="0 0 16 16" fill="#262626" xmlns="http://www.w3.org/2000/svg">
<g clip-path="url(#clip0_22_49)">
<path  d="M2 2H5.33333V0H2C1.46957 0 0.960859 0.210714 0.585786 0.585786C0.210714 0.960859 0 1.46957 0 2L0 14C0 14.5304 0.210714 15.0391 0.585786 15.4142C0.960859 15.7893 1.46957 16 2 16H5.33333V14H2V2Z" fill="#262626"/>
<path d="M15.2987 6.35L12.2414 3.29266L10.8274 4.70733L13.1027 6.982L3.33337 7V9L13.1334 8.982L10.8227 11.2927L12.2367 12.7073L15.2947 9.65C15.7319 9.21242 15.9778 8.61938 15.9786 8.00082C15.9793 7.38227 15.7348 6.78864 15.2987 6.35Z" fill="#262626"/>
</g>
<defs>
<clipPath id="clip0_22_49">
<rect width="16" height="16" fill="#262626"/>
</clipPath>
</defs>
</svg>
