<svg width="3" height="14" viewBox="0 0 3 14" fill="none" xmlns="http://www.w3.org/2000/svg">
<path d="M2.95317 1.4573C2.95317 0.652452 2.30072 -4.02614e-06 1.49587 -4.03574e-06C0.69103 -4.04534e-06 0.0385742 0.652452 0.0385742 1.4573C0.0385742 2.26214 0.69103 2.9146 1.49587 2.9146C2.30072 2.9146 2.95317 2.26214 2.95317 1.4573Z" fill="#7E7E7E"/>
<path d="M2.9146 7.00496C2.9146 6.20012 2.26215 5.54766 1.4573 5.54766C0.652456 5.54766 2.69758e-08 6.20012 1.73781e-08 7.00496C7.78045e-09 7.80981 0.652456 8.46227 1.4573 8.46227C2.26215 8.46227 2.9146 7.80981 2.9146 7.00496Z" fill="#7E7E7E"/>
<path d="M2.9146 12.5427C2.9146 11.7379 2.26215 11.0854 1.4573 11.0854C0.652456 11.0854 2.69758e-08 11.7379 1.73781e-08 12.5427C7.78045e-09 13.3475 0.652456 14 1.4573 14C2.26215 14 2.9146 13.3475 2.9146 12.5427Z" fill="#7E7E7E"/>
</svg>
