<svg width="27" height="27" viewBox="0 0 27 27" fill="none" xmlns="http://www.w3.org/2000/svg">
<path d="M14.625 12.375V7.875H16.875V10.5064L15.0649 12.375H14.625ZM12.4436 24.696C6.73425 24.1616 2.25 19.3455 2.25 13.5C2.25 7.29675 7.29675 2.25 13.5 2.25C19.2386 2.25 23.9794 6.57338 24.6577 12.132C25.4025 12.7935 26.2159 13.5596 26.9516 14.4495C26.9741 14.1345 27 13.8206 27 13.5C27 6.05587 20.9441 0 13.5 0C6.05587 0 0 6.05587 0 13.5C0 20.9441 6.05587 27 13.5 27C13.7666 27 14.0265 26.9753 14.2886 26.9595C13.5585 26.3115 12.933 25.5487 12.4436 24.696ZM7.875 12.375V7.875H5.625V12.375H7.875ZM12.375 12.375V7.875H10.125V12.375H12.375ZM27 20.2354C27 23.958 23.9726 26.9854 20.25 26.9854C16.5274 26.9854 13.5 23.958 13.5 20.2354C13.5 18.2565 14.6014 16.0864 15.6881 14.9636L17.2283 13.374L17.604 15.5576C17.6737 15.9615 17.8121 16.4272 17.9404 16.7254C18.0653 16.4756 18.1991 15.9221 18.2869 15.5655C18.5141 14.6216 18.7987 13.446 19.5739 12.3053L20.3377 11.1791L21.2996 12.141C21.6562 12.4965 22.0894 12.8734 22.5518 13.2761C24.4294 14.9107 27 17.1484 27 20.2354ZM24.75 20.2354C24.75 18.1744 22.797 16.4734 21.0735 14.9726C20.9959 14.904 20.9171 14.8376 20.8417 14.7701C20.6865 15.2111 20.5796 15.6566 20.4727 16.0954C20.1656 17.3678 19.7449 19.1104 17.7019 19.1104C17.0471 19.1104 16.5667 18.7538 16.2169 18.252C15.9379 18.9011 15.75 19.6076 15.75 20.2354C15.75 21.9566 16.7209 23.4551 18.144 24.2111C17.8425 23.409 18.0135 22.4707 18.6581 21.8261L20.25 20.2342L21.8407 21.8261C22.4854 22.4707 22.6564 23.4101 22.3549 24.2111C23.778 23.4551 24.75 21.9578 24.75 20.2354Z" fill="#55B56C"/>
</svg>
