<svg xmlns="http://www.w3.org/2000/svg" version="1.1" xmlns:xlink="http://www.w3.org/1999/xlink" width="512" height="512" x="0" y="0" viewBox="0 0 24 24" style="enable-background:new 0 0 512 512" xml:space="preserve" class=""><g><path d="M6 12V7h3v5H6Zm4.5 0h3V7h-3v5Zm.042 8.871C6.272 20.171 3 16.465 3 12c0-4.963 4.037-9 9-9 4.185 0 7.701 2.875 8.704 6.751l.047.041c1.02.886 2.211 1.924 3.202 3.141.024-.309.047-.618.047-.933 0-6.617-5.383-12-12-12S0 5.383 0 12s5.383 12 12 12c.232 0 .459-.022.688-.035a8.017 8.017 0 0 1-2.146-3.094ZM24 18a6 6 0 1 1-12 0c0-1.725 1-3.06 1.995-4.087 0 0 .681 2.087 1.287 2.087 1.263 0 .897-3.898 2.718-6 1.895 1.895 6 4.526 6 8Zm-4.586.585-1.415-1.415-1.415 1.415a2 2 0 1 0 2.829 0Zm-2.926-9.894L18 7.001h-3v4c.306-.806.877-1.604 1.488-2.31Z" fill="#262626" opacity="1" data-original="#000000" class=""></path></g></svg>