<svg viewBox="0 0 32 32" xmlns="http://www.w3.org/2000/svg"><g fill="#262626"><path d="m29 19.5h-6a3.5 3.5 0 0 0 -3.5 3.5v6a1.5 1.5 0 0 0 3 0v-6a.5.5 0 0 1 .5-.5h6a1.5 1.5 0 0 0 0-3z"/><path d="m23 9.5a.5.5 0 0 1 -.5-.5v-6a1.5 1.5 0 0 0 -3 0v6a3.5 3.5 0 0 0 3.5 3.5h6a1.5 1.5 0 0 0 0-3z"/><path d="m9 22.5a.5.5 0 0 1 .5.5v6a1.5 1.5 0 0 0 3 0v-6a3.5 3.5 0 0 0 -3.5-3.5h-6a1.5 1.5 0 0 0 0 3z"/><path d="m3 12.5h6a3.5 3.5 0 0 0 3.5-3.5v-6a1.5 1.5 0 0 0 -3 0v6a.5.5 0 0 1 -.5.5h-6a1.5 1.5 0 0 0 0 3z"/></g></svg>