<?xml version="1.0" encoding="UTF-8"?>
<svg xmlns="http://www.w3.org/2000/svg" id="svg1986" height="8.467mm" viewBox="0 0 8.46667 8.4666595" width="8.467mm" fill='#262626'>
  <g id="layer1" transform="translate(-103.67 -113.934)">
    <path fill="#262626" id="path3411" d="m107.27192 114.99184a.26460996.26460996 0 0 0 -.04134.0062c-1.46228.3306-2.50208 1.63344-2.50217 3.13262-.00001 1.77046 1.44073 3.21118 3.21117 3.21118 1.49919-.0001 2.80202-1.0399 3.13263-2.50218a.26460996.26460996 0 0 0 -.40411-.27905c-.37238.24607-.8094.37629-1.25574.37672-1.26255 0-2.27945-1.01638-2.27945-2.27893.00043-.44633.13065-.88387.37673-1.25625a.26460996.26460996 0 0 0 -.23772-.41031z" stroke-linecap="round" stroke-linejoin="round"/>
  </g>
</svg>