<svg width="19" height="19" viewBox="0 0 19 19" fill="none" xmlns="http://www.w3.org/2000/svg">
<path d="M6.91992 1.69971C7.44455 1.69976 7.87011 2.12528 7.87012 2.6499C7.87012 3.17453 7.44456 3.60004 6.91992 3.6001H3.87793C2.89634 3.6001 2.10059 4.39543 2.10059 5.37744V14.9224C2.10059 15.9043 2.89634 16.6997 3.87793 16.6997H13.4229C14.4044 16.6997 15.2002 15.9043 15.2002 14.9224V11.8813C15.2004 11.3569 15.626 10.9321 16.1504 10.9321C16.6747 10.9323 17.1003 11.357 17.1006 11.8813V14.9224C17.1006 16.9541 15.4535 18.6001 13.4229 18.6001H3.87793C1.84731 18.6001 0.200195 16.9541 0.200195 14.9224V5.37744C0.200195 3.34578 1.84731 1.69971 3.87793 1.69971H6.91992Z" fill="#898992" stroke="#898992" stroke-width="0.4"/>
<path d="M17.6523 0.199707C18.1769 0.19977 18.6025 0.625268 18.6025 1.1499V7.1499C18.6025 7.67454 18.1769 8.10003 17.6523 8.1001C17.1277 8.1001 16.7021 7.67458 16.7021 7.1499V2.1001H11.6523C11.1277 2.1001 10.7021 1.67457 10.7021 1.1499C10.7022 0.62524 11.1277 0.199707 11.6523 0.199707H17.6523Z" fill="#898992" stroke="#898992" stroke-width="0.4"/>
<path d="M16.4316 1.04688C16.8032 0.676582 17.405 0.677403 17.7754 1.04883C18.1227 1.39715 18.1437 1.94766 17.8389 2.32031L17.7734 2.39258L10.8213 9.32227C10.473 9.66947 9.92245 9.6906 9.5498 9.38574L9.47754 9.32031C9.10723 8.9487 9.10792 8.34694 9.47949 7.97656L16.4316 1.04688Z" fill="#898992" stroke="#898992" stroke-width="0.4"/>
</svg>
