<?xml version="1.0" encoding="UTF-8"?>
<svg xmlns="http://www.w3.org/2000/svg" id="Layer_1" data-name="Layer 1" viewBox="0 0 293 280.79" fill="#262626">
  <path d="M276,170.091v58.909l-30.372-30.372c-26.784,26.736-63.204,42.372-101.628,42.372C64.596,241,0,176.404,0,120H36c0,59.556,48.444,108,108,108,28.824,0,56.124-11.712,76.224-31.776l-28.224-28.224h70.908c7.224,0,13.092,5.856,13.092,13.092ZM25.092,80h70.908l-28.224-28.224C87.876,31.712,115.176,20,144,20c59.556,0,108,48.456,108,108h36C288,64.596,223.404,0,144,0,105.564,0,69.156,15.624,42.36,42.36L12,12V68.908c0,7.236,5.856,13.092,13.092,13.092Zm128.868,134.316l34.476-66.18c4.524-7.596,4.752-17.004,0.54-24.84-4.392-8.208-12.924-13.296-22.236-13.296h-27.72l26.928-51.684-31.92-16.644-36.948,71.604c-2.316,7.656-0.84,16.044,3.912,22.476,4.764,6.42,12.384,10.248,20.376,10.248h27.588l-26.928,51.684,31.92,16.644Z"/>
</svg>
