<?xml version="1.0" encoding="UTF-8"?>
<svg id="Layer_2" data-name="Layer 2" xmlns="http://www.w3.org/2000/svg" viewBox="0 0 333.91 418.3" width="16px" height="16px" fill="#262626">
  <g id="Layer_1-2" data-name="Layer 1">
    <path d="M295.99,112.53c-25.07-27.52-62.99-42.2-109.47-45.87V0h-39.75v67.27c-32.41,1.83-60.54,9.17-81.34,22.02-20.79,12.84-36.69,30.58-48.31,52.59C5.5,163.9,0,188.97,0,216.49c0,42.2,12.84,76.44,39.75,103.96,26.3,26.91,63.6,41.59,107.63,43.42v54.43h39.75v-54.43c42.81-1.83,80.11-15.9,106.41-41.59,26.91-26.3,40.36-61.77,40.36-107.63-.61-40.97-13.45-74.61-37.92-102.13ZM146.77,321.68c-28.13-.61-53.82-9.78-72.77-27.52-18.96-17.73-28.13-44.03-28.13-77.67s8.56-59.93,25.69-77.67c17.12-18.35,44.03-27.52,75.22-28.74v211.6ZM261.74,292.32c-17.73,18.35-44.03,28.13-75.22,29.35V110.08c32.41,0,59.93,9.78,76.44,29.35,16.51,19.57,25.07,45.25,25.07,76.44s-9.17,58.1-26.3,76.44Z"/>
  </g>
</svg>