<svg xmlns="http://www.w3.org/2000/svg" version="1.1" xmlns:xlink="http://www.w3.org/1999/xlink" width="512" height="512" x="0" y="0" viewBox="0 0 24 24" style="enable-background:new 0 0 512 512" xml:space="preserve" class=""><g><path d="M10.5 4h-7A3.5 3.5 0 0 0 0 7.5v4a3.5 3.5 0 0 0 1.6 2.93L5.85 24h1.4a2.752 2.752 0 0 0 2.514-3.868L7.481 15H10.5c2.649 0 4.5 1.645 4.5 4h3V0h-3c0 2.355-1.851 4-4.5 4zm0 8h-7a.5.5 0 0 1-.5-.5v-4a.5.5 0 0 1 .5-.5h7A7.954 7.954 0 0 0 15 5.666v7.668A7.954 7.954 0 0 0 10.5 12zm10.561.185 2.288 2.288-2.121 2.121-2.289-2.288zm.039-5.341-2.122-2.121 2.25-2.25 2.121 2.121zM24 8v3h-3V8z" fill="#262626" opacity="1" data-original="#000000"></path></g></svg>