<svg width="16" height="16" viewBox="0 0 16 16" fill="#262626" xmlns="http://www.w3.org/2000/svg">
<g clip-path="url(#clip0_25_63)">
<path d="M9.33333 6H6.66667V3.33333H9.33333V6ZM6.66667 12.6667H12.6667V10.6667H6.66667V12.6667ZM16 2.33333V13.3333C16 14.804 14.804 16 13.3333 16H2.66667C1.196 16 0 14.804 0 13.3333V4H3.33333V2.33333C3.33333 1.04667 4.38 0 5.66667 0H13.6667C14.9533 0 16 1.04667 16 2.33333ZM3.33333 6H2V13.3333C2 13.7007 2.29933 14 2.66667 14C3.034 14 3.33333 13.7007 3.33333 13.3333V6ZM14 2.33333C14 2.14933 13.8507 2 13.6667 2H5.66667C5.48267 2 5.33333 2.14933 5.33333 2.33333V13.3333C5.33333 13.5633 5.304 13.7867 5.24933 14H13.3333C13.7007 14 14 13.7007 14 13.3333V2.33333ZM6.66667 9.33333H12.6667V7.33333H6.66667V9.33333ZM10.6667 6H12.6667V4H10.6667V6Z" fill="#262626"/>
</g>
<defs>
<clipPath id="clip0_25_63">
<rect width="16" height="16" fill="#262626"/>
</clipPath>
</defs>
</svg>
