<svg enable-background="new 0 0 100 100" height="100" viewBox="0 0 100 100" width="100" xmlns="http://www.w3.org/2000/svg"><g id="check_alert_bell_mark_notification_alarm"><path d="m79.973 7.497c-11.045 0-20.029 8.984-20.029 20.028s8.984 20.028 20.029 20.028c11.043 0 20.027-8.984 20.027-20.028s-8.984-20.028-20.027-20.028zm-2.5 28.561-6.766-6.766 3.535-3.534 3.23 3.231 8.229-8.23 3.534 3.534zm12.496 43.949c0 1.382-1.118 2.499-2.5 2.499h-28.346c-2.059 5.824-7.609 9.997-14.139 9.997s-12.081-4.173-14.139-9.997h-28.346c-1.381 0-2.499-1.117-2.499-2.499s1.118-2.499 2.499-2.499h5.861c1.177-2.337 2.462-5.598 3.496-9.996h66.371c.802 3.324 1.895 6.744 3.383 9.996h5.859c1.382 0 2.5 1.117 2.5 2.499zm-13.848-28.086c-5.756-.905-11.217-3.831-15.209-8.669-5.779-7.004-7.041-16.27-4.131-24.239-1.518-.623-3.096-1.13-4.723-1.509.271-.775.423-1.606.423-2.474 0-4.139-3.358-7.498-7.497-7.498s-7.498 3.358-7.498 7.498c0 .868.149 1.7.42 2.474-13.766 3.205-24.024 15.555-24.024 30.293 0 5.731-.411 10.6-1.056 14.716h64.385c-.69-4.117-.977-7.839-1.09-10.592zm-29.327-35.174c-.599-.034-3.02-.033-3.619.001-.426-.449-.69-1.053-.69-1.718 0-1.376 1.123-2.5 2.499-2.5s2.499 1.123 2.499 2.5c0 .664-.263 1.269-.689 1.717z"/></g><g id="Capa_1"/></svg>