<svg xmlns="http://www.w3.org/2000/svg" version="1.1" xmlns:xlink="http://www.w3.org/1999/xlink" width="512" height="512" x="0" y="0" viewBox="0 0 500 500" style="enable-background:new 0 0 512 512" xml:space="preserve" class=""><g><path fill="#262626" fill-rule="evenodd" d="M253.79 220.63c1.45-2.51 4.66-3.36 7.17-1.91s3.36 4.66 1.91 7.17l-25.03 43.35a5.245 5.245 0 0 1-7.17 1.91c-.09-.05-.18-.11-.27-.17l-65.1-37.58c-2.51-1.44-3.37-4.64-1.93-7.15s4.64-3.37 7.15-1.93l60.85 35.13zm164.84-101.79a236.336 236.336 0 0 0-35.87-35.94l-22.23 22.23a5.264 5.264 0 0 1-7.16.26c-5.97-4.39-12.18-8.46-18.61-12.17-6.51-3.75-13.27-7.16-20.27-10.2a5.223 5.223 0 0 1-2.98-6.16h-.02l8.13-30.36a239.12 239.12 0 0 0-24.17-7.87c-8.23-2.21-16.55-3.97-24.89-5.28l-8.14 30.36a5.252 5.252 0 0 1-5.76 3.85c-7.63-.87-15.16-1.3-22.56-1.31-7.54-.01-15.09.43-22.63 1.28-2.61.29-4.99-1.4-5.65-3.86l-8.14-30.36a237.428 237.428 0 0 0-49.05 13.19l8.14 30.38a5.25 5.25 0 0 1-3.24 6.28c-6.88 3.01-13.55 6.39-19.97 10.1a199.97 199.97 0 0 0-18.96 12.41c-2.11 1.55-5 1.29-6.8-.51l-.02.02-22.24-22.25c-6.6 5.31-12.94 10.98-18.97 17a238.016 238.016 0 0 0-16.98 18.87l22.23 22.23a5.264 5.264 0 0 1 .26 7.16c-4.39 5.97-8.46 12.18-12.17 18.61-3.75 6.51-7.16 13.27-10.2 20.27a5.223 5.223 0 0 1-6.16 2.98v.02l-30.36-8.14c-3.05 7.92-5.68 15.99-7.88 24.18-2.2 8.23-3.97 16.54-5.28 24.89l30.36 8.14c2.58.69 4.19 3.18 3.85 5.76-.87 7.64-1.3 15.17-1.31 22.57-.01 7.54.43 15.09 1.28 22.62.29 2.61-1.4 4.99-3.86 5.65L0 303.87c1.31 8.36 3.07 16.65 5.28 24.84 2.22 8.26 4.87 16.34 7.92 24.22l30.38-8.14a5.25 5.25 0 0 1 6.28 3.24 200.5 200.5 0 0 0 10.09 19.96h.01c3.83 6.63 7.97 12.97 12.4 18.98 1.55 2.11 1.29 5-.51 6.8l.02.02-22.24 22.24c5.31 6.61 10.98 12.94 17 18.97 5.96 5.97 12.26 11.64 18.87 16.98l39-39c-21.91-16.31-40.04-37.44-52.82-61.81-13.27-25.3-20.77-54.06-20.77-84.55 0-50.36 20.41-95.96 53.42-128.97s78.6-53.42 128.97-53.42c30.49 0 59.25 7.51 84.55 20.77 24.37 12.78 45.49 30.91 61.81 52.82zm46.55 144.9c-21.51-21.51-51.24-34.82-84.07-34.82s-62.55 13.31-84.07 34.82c-21.51 21.51-34.82 51.24-34.82 84.07s13.31 62.55 34.82 84.07c21.51 21.51 51.24 34.82 84.07 34.82s62.55-13.31 84.07-34.82c21.51-21.51 34.82-51.24 34.82-84.07s-13.31-62.56-34.82-84.07zM255.94 380.75a129.65 129.65 0 0 1-4.23-32.94c0-35.73 14.49-68.09 37.9-91.5 14.43-14.43 32.26-25.47 52.18-31.82-1.53-3.93-3.26-7.76-5.19-11.47l-11.1 6.41c-2.51 1.45-5.72.6-7.17-1.91s-.6-5.72 1.91-7.17l11.11-6.41a116.855 116.855 0 0 0-35.39-35.39l-6.41 11.1c-1.44 2.51-4.64 3.37-7.15 1.93s-3.37-4.64-1.93-7.15l6.42-11.12c-14.57-7.57-30.95-12.15-48.34-12.92v12.81a5.26 5.26 0 0 1-10.52 0v-12.81c-17.37.77-33.75 5.35-48.32 12.93l6.4 11.09c1.45 2.51.6 5.72-1.91 7.17s-5.72.6-7.17-1.91l-6.41-11.1c-7.1 4.55-13.67 9.84-19.6 15.78a117.007 117.007 0 0 0-15.78 19.61l11.08 6.4c2.51 1.44 3.37 4.64 1.93 7.15s-4.64 3.37-7.15 1.93l-11.11-6.41c-7.58 14.58-12.16 30.97-12.93 48.35h12.81c2.89 0 5.24 2.35 5.24 5.24s-2.35 5.24-5.24 5.24h-12.81c.77 17.38 5.35 33.76 12.93 48.34l11.09-6.4c2.51-1.45 5.72-.6 7.17 1.91s.6 5.72-1.91 7.17l-11.1 6.41c4.55 7.1 9.84 13.67 15.78 19.6 5.94 5.94 12.51 11.23 19.61 15.78l6.4-11.08c1.44-2.51 4.64-3.37 7.15-1.93s3.37 4.64 1.93 7.15l-6.41 11.11c14.58 7.58 30.97 12.16 48.35 12.93v-12.81c0-2.89 2.35-5.24 5.24-5.24s5.24 2.35 5.24 5.24v12.81c3.01-.13 5.97-.38 8.9-.73 2.89-.37 5.72-.82 8.51-1.37zm11.94 29.75c-3.47-6.25-6.44-12.83-8.85-19.66-3.42.71-6.88 1.28-10.36 1.7-5.06.61-10.19.93-15.37.93-35.03 0-66.74-14.2-89.7-37.16s-37.16-54.67-37.16-89.7 14.2-66.74 37.16-89.7 54.67-37.16 89.7-37.16c27.59 0 53.14 8.83 73.98 23.82 20.08 14.45 35.77 34.62 44.67 58.13 6.92-1.59 14.05-2.63 21.34-3.06-9.72-28.37-27.82-52.86-51.35-70.5-24.68-18.5-55.37-29.47-88.64-29.47-40.85 0-77.84 16.56-104.61 43.33s-43.33 63.76-43.33 104.61 16.56 77.84 43.33 104.61 63.76 43.33 104.61 43.33c7.14 0 14.1-.49 20.86-1.45 4.66-.66 9.23-1.53 13.72-2.6zm176.67-126.13c16.23 16.23 26.27 38.66 26.27 63.43s-10.04 47.2-26.27 63.43-38.66 26.27-63.43 26.27-47.2-10.04-63.43-26.27-26.27-38.66-26.27-63.43 10.04-47.2 26.27-63.43 38.66-26.27 63.43-26.27c24.76 0 47.19 10.04 63.43 26.27zm-63.44-36.79c27.68 0 52.73 11.22 70.87 29.36s29.36 43.19 29.36 70.87-11.22 52.73-29.36 70.87-43.19 29.36-70.87 29.36-52.73-11.22-70.87-29.36-29.36-43.19-29.36-70.87 11.22-52.73 29.36-70.87 43.19-29.36 70.87-29.36zm-48.56 96.85 26.66 26.66c2.05 2.05 5.38 2.05 7.44 0l63.03-63.02 6.37 6.37-73.12 73.12-36.75-36.75zm-17.53 2.65 13.81-13.81c2.05-2.05 5.38-2.05 7.44 0l26.66 26.66 63.02-63.03c2.05-2.05 5.38-2.05 7.44 0l13.81 13.81c2.05 2.05 2.05 5.38 0 7.44l-80.55 80.55c-2.05 2.05-5.38 2.05-7.44 0l-44.19-44.19a5.257 5.257 0 0 1 0-7.43z" clip-rule="evenodd" opacity="1" data-original="#00a651" class=""></path></g></svg>