<svg width="16" height="16" viewBox="0 0 16 16" fill="#262626" xmlns="http://www.w3.org/2000/svg">
<g clip-path="url(#clip0_16_31)">
<path d="M12.6 11.184C13.6643 9.7616 14.1503 7.98882 13.9602 6.2225C13.77 4.45618 12.9178 2.82747 11.5751 1.66422C10.2324 0.500974 8.49883 -0.110439 6.72343 -0.0469443C4.94804 0.0165509 3.26261 0.75024 2.00642 2.00643C0.750225 3.26263 0.0165356 4.94806 -0.0469595 6.72345C-0.110455 8.49884 0.500959 10.2324 1.66421 11.5751C2.82745 12.9178 4.45616 13.77 6.22248 13.9602C7.9888 14.1504 9.76159 13.6643 11.184 12.6L14.584 16L16 14.5867L12.6 11.184ZM6.99998 12C6.01107 12 5.04437 11.7067 4.22213 11.1573C3.39988 10.6079 2.75902 9.82704 2.38058 8.91341C2.00214 7.99978 1.90312 6.99445 2.09605 6.02454C2.28898 5.05464 2.76518 4.16372 3.46444 3.46446C4.16371 2.7652 5.05462 2.28899 6.02453 2.09607C6.99443 1.90314 7.99976 2.00216 8.91339 2.38059C9.82703 2.75903 10.6079 3.3999 11.1573 4.22214C11.7067 5.04439 12 6.01109 12 6.99999C11.9987 8.3257 11.4716 9.59675 10.5341 10.5342C9.59673 11.4716 8.32568 11.9988 6.99998 12Z" fill="#262626"/>
</g>
<defs>
<clipPath id="clip0_16_31">
<rect width="16" height="16" fill="#262626"/>
</clipPath>
</defs>
</svg>
