 <svg id="Layer_1" enable-background="new 0 0 500 500" viewBox="0 0 500 500" xmlns="http://www.w3.org/2000/svg" fill='#262626'><path clip-rule="evenodd" d="m140.807 292.641c1.271 3.314-.396 7.007-3.721 8.311l-9.604 3.639 6.193 8.962c2.021 2.933 1.287 6.953-1.64 8.963-2.933 2.064-6.942 1.304-8.968-1.629l-5.551-8.039-5.551 8.039c-2.031 2.978-6.137 3.627-8.963 1.629-2.928-2.01-3.661-6.029-1.64-8.963l6.187-8.962-10.033-3.802c-3.324-1.304-4.992-4.997-3.721-8.311 1.271-3.313 4.992-4.997 8.316-3.748l8.968 3.422v-12.113c0-3.531 2.879-6.41 6.442-6.41 3.558 0 6.448 2.879 6.448 6.41v12.113l8.523-3.259c3.324-1.25 7.044.434 8.315 3.748zm176.934 0c1.271 3.314-.396 7.007-3.721 8.311l-9.604 3.639 6.193 8.962c2.021 2.933 1.287 6.953-1.64 8.963-2.933 2.064-6.942 1.304-8.968-1.629l-5.546-8.039-5.551 8.039c-2.028 2.967-6.133 3.634-8.968 1.629-2.928-2.01-3.661-6.029-1.641-8.963l6.198-8.962-10.038-3.802c-3.324-1.304-4.992-4.997-3.726-8.311 1.271-3.313 4.992-4.997 8.316-3.748l8.968 3.422v-12.113c0-3.531 2.89-6.41 6.442-6.41 3.558 0 6.448 2.879 6.448 6.41v12.113l8.517-3.259c3.33-1.25 7.056.434 8.321 3.748zm-88.469 0c1.271 3.314-.396 7.007-3.721 8.311l-9.604 3.639 6.193 8.962c2.931 4.248-.08 10.103-5.296 10.103-2.048 0-4.058-.923-5.312-2.77l-5.551-8.039-5.54 8.039c-2.026 2.933-6.04 3.694-8.968 1.629-2.928-2.01-3.661-6.029-1.641-8.963l6.193-8.962-10.033-3.802c-3.324-1.304-5.003-4.997-3.732-8.311 1.271-3.313 4.992-4.997 8.316-3.748l8.973 3.422v-12.113c0-3.531 2.884-6.41 6.442-6.41s6.442 2.879 6.442 6.41v12.113l8.523-3.259c3.324-1.249 7.056.435 8.316 3.749zm176.934 0c1.271 3.314-.396 7.007-3.721 8.311l-9.598 3.639 6.192 8.962c2.015 2.933 1.288 6.953-1.646 8.963-2.928 2.064-6.942 1.304-8.968-1.629l-5.541-8.039-5.551 8.039c-2.015 2.942-6.11 3.651-8.968 1.629-2.928-2.01-3.661-6.029-1.64-8.963l6.192-8.962-10.044-3.802c-3.324-1.304-4.981-4.997-3.721-8.311 1.271-3.313 4.992-4.997 8.327-3.748l8.957 3.422v-12.113c0-3.531 2.89-6.41 6.448-6.41s6.442 2.879 6.442 6.41v12.113l8.523-3.259c3.325-1.25 7.057.434 8.317 3.748zm0 114.613c1.271 3.368-.396 7.061-3.721 8.311l-9.604 3.694 6.198 8.962c2.015 2.933 1.288 6.953-1.646 8.963-2.928 2.01-6.942 1.304-8.968-1.63l-5.541-8.039-5.551 8.039c-2.031 2.921-6.028 3.638-8.968 1.63-2.928-2.01-3.661-6.029-1.64-8.963l6.192-8.962-10.044-3.857c-3.324-1.249-4.981-4.997-3.721-8.311 1.271-3.313 4.992-4.997 8.327-3.694l8.957 3.422v-12.113c0-3.585 2.89-6.464 6.448-6.464s6.442 2.879 6.442 6.464v12.113l8.523-3.259c3.325-1.303 7.057.381 8.317 3.694zm-265.399 0c1.271 3.368-.396 7.061-3.721 8.311l-9.604 3.694 6.193 8.962c2.021 2.933 1.287 6.953-1.64 8.963-2.933 2.01-6.942 1.304-8.968-1.63l-5.551-8.039-5.551 8.039c-2.03 2.932-6.031 3.632-8.963 1.63-2.928-2.01-3.661-6.029-1.64-8.963l6.187-8.962-10.033-3.857c-3.324-1.249-4.992-4.943-3.721-8.311 1.271-3.313 4.992-4.997 8.316-3.694l8.968 3.422v-12.113c0-3.585 2.879-6.464 6.442-6.464 3.558 0 6.448 2.879 6.448 6.464v12.113l8.523-3.259c3.324-1.303 7.05.381 8.315 3.694zm176.934 0c1.271 3.368-.396 7.061-3.721 8.311l-9.604 3.694 6.193 8.962c2.021 2.933 1.287 6.953-1.64 8.963-2.933 2.01-6.942 1.304-8.968-1.63l-5.546-8.039-5.551 8.039c-2.032 2.929-6.034 3.634-8.968 1.63-2.928-2.01-3.661-6.029-1.641-8.963l6.198-8.962-10.038-3.857c-3.324-1.249-4.992-4.943-3.726-8.311 1.271-3.313 4.992-4.997 8.316-3.694l8.968 3.422v-12.113c0-3.585 2.89-6.464 6.442-6.464 3.558 0 6.448 2.879 6.448 6.464v12.113l8.517-3.259c3.33-1.303 7.056.381 8.321 3.694zm-88.469 0c1.271 3.368-.396 7.061-3.721 8.311l-9.604 3.694 6.193 8.962c2.997 4.345-.231 10.103-5.296 10.103-2.048 0-4.058-.978-5.312-2.77l-5.551-8.039-5.54 8.039c-2.026 2.933-6.04 3.639-8.968 1.63-2.928-2.01-3.661-6.029-1.641-8.963l6.193-8.962-10.033-3.857c-3.324-1.249-5.003-4.943-3.732-8.311 1.271-3.313 4.992-4.997 8.316-3.694l8.973 3.422v-12.113c0-3.585 2.884-6.464 6.442-6.464s6.442 2.879 6.442 6.464v12.113l8.523-3.259c3.324-1.303 7.056.381 8.316 3.694zm-14.873-278.549c-2.515-2.499-2.515-6.573 0-9.126 2.521-2.499 6.6-2.499 9.12 0l19.338 19.338 43.602-53.667c2.243-2.77 6.306-3.205 9.06-.978 2.77 2.281 3.189 6.301.945 9.071l-48.1 59.262c-2.414 2.967-6.87 3.225-9.566.489zm-41.777-81.044v81.262c0 23.737 10.266 43.51 29.685 57.144l47.698 33.515 47.698-33.515c19.419-13.634 29.685-33.406 29.685-57.144v-81.262zm22.277 148.943 51.402 36.122c2.185 1.517 5.219 1.521 7.404 0l51.408-36.122c22.673-15.916 35.166-39.979 35.166-67.682v-87.671c0-3.585-2.89-6.464-6.448-6.464h-167.656c-3.553 0-6.442 2.879-6.442 6.464v87.671c-.001 27.703 12.482 51.767 35.166 67.682zm254.436 237.212v-41.065c0-10.212-8.3-18.523-18.507-18.523h-361.657c-10.201 0-18.507 8.311-18.507 18.523v41.065c0 10.212 8.305 18.523 18.507 18.523h361.657c10.207 0 18.507-8.311 18.507-18.523zm-18.506-72.462h-361.658c-17.311 0-31.397 14.069-31.397 31.397v41.065c0 17.328 14.085 31.397 31.397 31.397h361.657c17.311 0 31.397-14.069 31.397-31.397v-41.065c0-17.328-14.085-31.397-31.396-31.397zm18.506-42.151v-41.12c0-10.158-8.3-18.469-18.507-18.469h-361.657c-10.201 0-18.507 8.311-18.507 18.469v41.12c0 10.212 8.305 18.523 18.507 18.523h361.657c10.207 0 18.507-8.311 18.507-18.523zm-18.506-72.516h-361.658c-17.311 0-31.397 14.123-31.397 31.396v41.12c0 17.328 14.085 31.396 31.397 31.396h361.657c17.311 0 31.397-14.069 31.397-31.396v-41.12c0-17.274-14.085-31.396-31.396-31.396z" fill-rule="evenodd"/></svg>