<svg xmlns="http://www.w3.org/2000/svg" version="1.1" xmlns:xlink="http://www.w3.org/1999/xlink" width="512" height="512" x="0" y="0" viewBox="0 0 24 24" style="enable-background:new 0 0 512 512" xml:space="preserve" class=""><g><path d="M12 0C5.383 0 0 5.383 0 12s5.383 12 12 12h12V12c0-6.617-5.383-12-12-12Zm9 21h-9c-4.962 0-9-4.038-9-9s4.038-9 9-9 9 4.038 9 9v9Zm-7.5-9a1.5 1.5 0 1 1-3.001-.001A1.5 1.5 0 0 1 13.5 12Zm5 0a1.5 1.5 0 1 1-3.001-.001A1.5 1.5 0 0 1 18.5 12Zm-10 0a1.5 1.5 0 1 1-3.001-.001A1.5 1.5 0 0 1 8.5 12Z" fill="#262626" opacity="1" data-original="#000000" class=""></path></g></svg>