<svg width="14" height="14" viewBox="0 0 14 14" fill="#262626" xmlns="http://www.w3.org/2000/svg">
<path d="M12.8333 8.75V1.75H8.75V2.91667H11.6667V8.75H8.80017L8.21683 9.33333H5.78317L5.19983 8.75H2.33333V2.91667H5.25V1.75H1.16667V8.75H0V10.5C0 11.4648 0.785167 12.25 1.75 12.25H12.25C13.2148 12.25 14 11.4648 14 10.5V8.75H12.8333ZM12.8333 10.5C12.8333 10.822 12.572 11.0833 12.25 11.0833H1.75C1.42858 11.0833 1.16667 10.822 1.16667 10.5V9.91667H4.71683L5.30017 10.5H8.69983L9.28317 9.91667H12.8333V10.5ZM6.41667 5.30017V0H7.58333V5.30017L8.92092 3.96258L9.74575 4.78742L7.82483 6.70833C7.59733 6.93583 7.29867 7.04958 7 7.04958C6.70133 7.04958 6.40267 6.93583 6.17517 6.70833L4.25425 4.78742L5.07908 3.96258L6.41667 5.30017Z" fill="#262626"/>
</svg>
