<svg width="28" height="27" viewBox="0 0 28 27" fill="none" xmlns="http://www.w3.org/2000/svg">
<path d="M13.5133 27C1.51833 26.988 -4.51509 12.4208 3.95809 3.93155C8.988 -1.31013 18.0386 -1.31097 23.0685 3.93176C31.5416 12.4218 25.5075 26.9887 13.5133 27ZM13.5133 2.0851C7.22632 2.0851 2.11154 7.19989 2.11154 13.4868C2.73784 28.6128 24.291 28.6084 24.915 13.4867C24.915 7.19994 19.8002 2.0851 13.5133 2.0851ZM18.4298 16.9104L15.0944 13.575C15.1238 13.0824 14.9137 12.6116 14.5685 12.3061C14.5688 12.295 14.569 12.284 14.569 12.2728V6.09688C14.5132 4.69615 12.5128 4.69721 12.4576 6.09688V12.2728C12.4576 12.284 12.4578 12.295 12.4581 12.3061C11.3541 13.2943 12.103 15.1452 13.6014 15.068L16.9368 18.4035C17.3491 18.8158 18.0175 18.8158 18.4298 18.4035C18.8421 17.9912 18.8421 17.3227 18.4298 16.9104Z" fill="#55B56C"/>
</svg>
