<svg xmlns="http://www.w3.org/2000/svg" version="1.1" xmlns:xlink="http://www.w3.org/1999/xlink" width="512" height="512" x="0" y="0" viewBox="0 0 24 24" style="enable-background:new 0 0 512 512" xml:space="preserve" class=""><g><path fill="#000000" d="M17.5 0C13.916 0 11 2.916 11 6.5s2.916 6.5 6.5 6.5S24 10.084 24 6.5 21.084 0 17.5 0zm1 8.75a.75.75 0 0 1-1.5 0V5.5h-.5a.75.75 0 0 1 0-1.5h1.25a.75.75 0 0 1 .75.75z" opacity="1" data-original="#f44336" class=""></path><path fill="#000000" d="M17.5 0C13.916 0 11 2.916 11 6.5s2.916 6.5 6.5 6.5V9.457a.75.75 0 0 1-.5-.707V5.5h-.5a.75.75 0 0 1 0-1.5h1z" opacity="1" data-original="#d43a2f" class=""></path><path fill="#000000" d="M14 20a4 4 0 1 1-8 0 4 4 0 0 1 8 0z" opacity="1" data-original="#ffa000" class=""></path><path fill="#000000" d="M17.82 14.984c-.107.004-.212.016-.32.016C12.813 15 9 11.187 9 6.5c0-1.647.479-3.182 1.293-4.485C10.195 2.011 10.099 2 10 2 6.14 2 3 5.14 3 9v2.788a6.705 6.705 0 0 1-2.388 5.133A1.752 1.752 0 0 0 1.75 20h16.5a1.752 1.752 0 0 0 1.128-3.088 6.71 6.71 0 0 1-1.558-1.928z" opacity="1" data-original="#ffc107" class=""></path><path fill="#000000" d="M10 20H6a4 4 0 0 0 4 4z" opacity="1" data-original="#de8b00" class=""></path><path fill="#000000" d="M10 2C6.14 2 3 5.14 3 9v2.788a6.705 6.705 0 0 1-2.388 5.133A1.752 1.752 0 0 0 1.75 20H10v-9.502a8.453 8.453 0 0 1 0-7.977z" opacity="1" data-original="#dea806" class=""></path></g></svg>