<svg id="Capa_1" enable-background="new 0 0 511.983 511.983" height="512" viewBox="0 0 511.983 511.983" width="512" xmlns="http://www.w3.org/2000/svg"><g><path d="m300.133 32.33c-6.17-18.76-23.85-32.33-44.65-32.33s-38.48 13.57-44.65 32.33c29.239-7.106 60.037-7.111 89.3 0z"/><path d="m321.063 477h-131.16c31.383 46.633 99.76 46.656 131.16 0z"/><path d="m446.523 381.33c-20.06-13.37-32.04-35.75-32.04-59.86v-35.47h-132.67c-30.51 0-55.33-24.82-55.33-55.33 0-9.53 2.48-18.94 7.16-27.23l77.16-136.51c-17.23-6.42-35.87-9.93-55.32-9.93-87.67 0-159 71.33-159 159v105.47c0 24.11-11.98 46.49-32.04 59.86-9.99 6.66-15.96 17.81-15.96 29.83 0 19.76 16.08 35.84 35.84 35.84h342.32c19.76 0 35.84-16.08 35.84-35.84 0-12.02-5.97-23.17-15.96-29.83z"/><path d="m493.203 218.198-92.848-164.27c-10.486-18.552-37.265-18.542-47.746 0l-92.848 164.27c-9.458 16.735 2.559 37.802 22.057 37.802h189.329c19.463 0 31.537-21.028 22.056-37.802zm-131.72-106.198c0-8.284 6.716-15 15-15s15 6.716 15 15v40c0 8.284-6.716 15-15 15s-15-6.716-15-15zm15 103.005c-8.284 0-15.005-6.721-15.005-15.005s6.721-15.005 15.005-15.005 15.005 6.721 15.005 15.005-6.721 15.005-15.005 15.005z"/><path d="m110.483 65c-21.505 0-39 17.495-39 39 0 8.284 6.716 15 15 15s15-6.716 15-15c0-4.963 4.037-9 9-9 8.284 0 15-6.716 15-15s-6.716-15-15-15z"/><path d="m110.483 39c8.284 0 15-6.716 15-15s-6.716-15-15-15c-52.383 0-95 42.617-95 95 0 8.284 6.716 15 15 15s15-6.716 15-15c0-35.841 29.159-65 65-65z"/></g></svg>