<svg id="circle_flat_gradient" height="512" viewBox="0 0 1000 1000" width="512" xmlns="http://www.w3.org/2000/svg" data-name="circle flat gradient"><path d="m518.08 461.91v206.15a18.06 18.06 0 0 1 -18.08 18.08c-.28 0-.56 0-.83 0a18.07 18.07 0 0 1 -17.25-18.06v-206.17a18.06 18.06 0 0 1 17.25-18.06h.83a18.07 18.07 0 0 1 18.08 18.06zm84.26-17.67a18.09 18.09 0 0 0 -19.52 16.53l-17 205.44c-.05.51-.07 1-.07 1.52a18.09 18.09 0 0 0 36.11 1.47l17-205.44c0-.51.06-1 .06-1.52a18.08 18.08 0 0 0 -16.58-18zm-185.16 16.53a18.09 18.09 0 0 0 -36.11 1.47c0 .51 0 1 .06 1.52l17 205.44a18.09 18.09 0 0 0 36.11-1.47c0-.5 0-1-.06-1.52zm567.82 39.23c0 267.86-217.14 485-485 485s-485-217.14-485-485 217.14-485 485-485 485 217.14 485 485zm-326.18-138.21h-319.31a27.3 27.3 0 0 0 -27.18 29.82l33.26 358.87a27.3 27.3 0 0 0 27.18 24.78h254a27.29 27.29 0 0 0 27.23-24.87l32-358.87a27.31 27.31 0 0 0 -27.18-29.73zm56.64-51.24a30.76 30.76 0 0 0 -30.78-30.78h-105.38a61.56 61.56 0 0 0 -61.22-55h-36.16a61.56 61.56 0 0 0 -61.22 55h-105.38a30.78 30.78 0 1 0 0 61.56h369.36a30.78 30.78 0 0 0 30.78-30.78z"/></svg>