<svg xmlns="http://www.w3.org/2000/svg" version="1.1" xmlns:xlink="http://www.w3.org/1999/xlink" width="512" height="512" fill='#262626' x="0" y="0" viewBox="0 0 24 24" style="enable-background:new 0 0 512 512" xml:space="preserve" class=""><g><path d="M13 5h-3V0h3zM1.882 9.519l.474 2.962 4.938-.79-.474-2.962zm1.263-4.783L7.049 7.86l1.874-2.343-3.904-3.124zm16.667-.073-1.895-2.326-3.876 3.158 1.895 2.326zm-1.87 13.167 2.213 4.363-3.623 1.812-2.299-4.471L10 23.404V10.125c0-.458.153-.913.43-1.279.695-.915 2.033-1.118 2.923-.444l10.229 8.829zm-1.56-2.852-3.383-2.921v4.54l1.559-1.424 1.825-.194z"  opacity="0.6" data-original="#000000" class=""></path></g></svg>