<svg xmlns="http://www.w3.org/2000/svg" version="1.1" xmlns:xlink="http://www.w3.org/1999/xlink" width="512" height="512" x="0" y="0" viewBox="0 0 24 24" style="enable-background:new 0 0 512 512" xml:space="preserve" class=""><g><path d="M18 12a6 6 0 1 0 0 12 6 6 0 0 0 0-12Zm.752 8.44-.004.004c-.744.744-2.058.746-2.823-.019l-2.182-2.268 1.387-1.441 2.216 2.301 3.614-3.703 1.398 1.43-3.607 3.696ZM24 10.177v2.557a8.007 8.007 0 0 0-3-2.134v-.423a.499.499 0 0 0-.191-.394l-8.501-6.652a.496.496 0 0 0-.616 0l-8.5 6.651a.496.496 0 0 0-.192.394V21h7.582a8.01 8.01 0 0 0 2.124 3H-.001V10.176c0-1.082.489-2.087 1.342-2.756L9.843.768a3.497 3.497 0 0 1 4.313 0l8.5 6.651A3.48 3.48 0 0 1 24 10.176Z" fill="#262626" opacity="1" data-original="#000000" class=""></path></g></svg>