<svg xmlns="http://www.w3.org/2000/svg" version="1.1" xmlns:xlink="http://www.w3.org/1999/xlink" width="512" height="512" x="0" y="0" viewBox="0 0 24 24" style="enable-background:new 0 0 512 512" xml:space="preserve"><g><path d="M13.5 19h10.513l-1.938-6.5a3.522 3.522 0 0 0-3.354-2.5H5.318a3.522 3.522 0 0 0-3.354 2.5L.026 19H10.5v2H6v3h12v-3h-4.5v-2Zm-3.37-3 .25-3h3.239l.25 3H10.13Zm9.07-2.643L19.987 16H16.88l-.25-3h2.09c.223 0 .416.144.479.357Zm-14.362 0A.495.495 0 0 1 5.317 13h2.052l-.25 3H4.05l.788-2.643ZM10 8H5V5h2.23c.18-.572.469-1.092.829-1.555L6.871 1.729 9.337.02l1.185 1.712c.468-.145.962-.232 1.478-.232s1.01.086 1.478.232L14.663.021l2.467 1.707-1.189 1.717c.36.463.649.983.83 1.555H19v3h-5V6.5c0-1.103-.897-2-2-2s-2 .897-2 2V8Z" fill="#262626" opacity="1" data-original="#000000"></path></g></svg>