<svg xmlns="http://www.w3.org/2000/svg" version="1.1" xmlns:xlink="http://www.w3.org/1999/xlink" width="512" height="512" x="0" y="0" viewBox="0 0 24 24" style="enable-background:new 0 0 512 512" xml:space="preserve" class=""><g><path d="M11 14H5a5.006 5.006 0 0 0-5 5v5h3v-5a2 2 0 0 1 2-2h6a2 2 0 0 1 2 2v5h3v-5a5.006 5.006 0 0 0-5-5ZM8 12a6 6 0 1 0-6-6 6.006 6.006 0 0 0 6 6Zm0-9a3 3 0 1 1-3 3 3 3 0 0 1 3-3ZM21 10V7h-3v3h-3v3h3v3h3v-3h3v-3h-3z" fill="#262626" opacity="1" data-original="#000000"></path></g></svg>