<svg width="14" height="3" viewBox="0 0 14 3" fill="#262626" xmlns="http://www.w3.org/2000/svg">
<path d="M12.5427 2.95307C13.3476 2.95307 14 2.30061 14 1.49577C14 0.690923 13.3476 0.0384674 12.5427 0.0384674C11.7379 0.0384674 11.0854 0.690923 11.0854 1.49577C11.0854 2.30061 11.7379 2.95307 12.5427 2.95307Z" fill="#262626"/>
<path d="M6.9949 2.9146C7.79974 2.9146 8.4522 2.26215 8.4522 1.4573C8.4522 0.652456 7.79974 0 6.9949 0C6.19005 0 5.5376 0.652456 5.5376 1.4573C5.5376 2.26215 6.19005 2.9146 6.9949 2.9146Z" fill="#262626"/>
<path d="M1.4573 2.9146C2.26215 2.9146 2.9146 2.26215 2.9146 1.4573C2.9146 0.652456 2.26215 0 1.4573 0C0.652456 0 0 0.652456 0 1.4573C0 2.26215 0.652456 2.9146 1.4573 2.9146Z" fill="#262626"/>
</svg>
