<svg xmlns="http://www.w3.org/2000/svg" version="1.1" xmlns:xlink="http://www.w3.org/1999/xlink" width="512" height="512" x="0" y="0" viewBox="0 0 24 24" style="enable-background:new 0 0 512 512" xml:space="preserve" class=""><g><path d="M8 6.5a1.5 1.5 0 1 1-3.001-.001A1.5 1.5 0 0 1 8 6.5ZM6.5 15a1.5 1.5 0 1 0 .001 3.001A1.5 1.5 0 0 0 6.5 15Zm0-5a1.5 1.5 0 1 0 .001 3.001A1.5 1.5 0 0 0 6.5 10Zm14-10h-17C1.57 0 0 1.57 0 3.5V23h10.275a11.437 11.437 0 0 1-1.817-2.613L8.267 20H3V3.5a.5.5 0 0 1 .5-.5h17a.5.5 0 0 1 .5.5v10.432c1.276.64 2.267 1.52 3 2.372V3.5C24 1.57 22.43 0 20.5 0ZM19 5h-9v3h9V5Zm-9 8h9v-3h-9v3Zm13.75 6.5C23.173 20.665 21.158 24 17 24s-6.175-3.338-6.75-4.5c.577-1.165 2.592-4.5 6.75-4.5s6.173 3.334 6.75 4.5Zm-4.75 0a2 2 0 1 0-3.999-.001A2 2 0 0 0 19 19.5Z" fill="#262626" opacity="1" data-original="#000000" class=""></path></g></svg>