<svg xmlns="http://www.w3.org/2000/svg" version="1.1" xmlns:xlink="http://www.w3.org/1999/xlink" width="512" height="512" x="0" y="0" viewBox="0 0 24 24" style="enable-background:new 0 0 512 512" xml:space="preserve" class=""><g><path d="M4 4h20V1H4C1.794 1 0 2.794 0 5v14.5C0 21.43 1.57 23 3.5 23H24V6H4a1.001 1.001 0 0 1 0-2Zm0 5h17v11H3.5a.5.5 0 0 1-.5-.5V8.874c.319.083.655.126 1 .126Zm12 5.5a1.5 1.5 0 1 1 3.001.001A1.5 1.5 0 0 1 16 14.5Z" fill="#262626" opacity="1" data-original="#000000" class=""></path></g></svg>